<svg xmlns="http://www.w3.org/2000/svg" xmlns:xlink="http://www.w3.org/1999/xlink" viewBox="0 -85 90 90"><defs><style>.cls-1,.cls-4,.cls-5,.cls-7{fill:none;}.cls-2{fill:#889196;}.cls-2,.cls-3,.cls-4,.cls-5,.cls-6,.cls-7{stroke:#b4897d;}.cls-2,.cls-6{stroke-miterlimit:10;}.cls-2,.cls-3,.cls-4,.cls-5,.cls-6{stroke-width:0.08px;}.cls-3{fill:#fff;}.cls-3,.cls-4,.cls-7{stroke-linecap:square;}.cls-6{fill:#f8cdc3;}.cls-7{stroke-width:0.16px;}.cls-8{clip-path:url(#clip-path);}.cls-9{fill:#b4897d;}</style><clipPath id="clip-path"><rect class="cls-1" x="36.3008" y="73.1292" width="3.9196" height="3.6694" transform="translate(-45.8873 73.3578) rotate(-61.8673)"/></clipPath></defs>
<g id='wrapper' transform='rotate(28), scale(1, -1)'>
<title>7</title><g id="Stairs_Outline" data-name="Stairs Outline"><polyline class="cls-2" points="43.06 62.6 30.764 58.419 33.182 69.269 35.016 68.816 38.619 70.748 43.06 62.6"/></g><g id="Stairs"><path class="cls-3" d="M35.0372,68.7977a5.2574,5.2574,0,0,1-.1209-1.4148,1.5292,1.5292,0,0,1,.5268-.6306l3.4316-2.3629a1.6915,1.6915,0,0,1,.8325-.2459,1.2909,1.2909,0,0,1,.5723.1381l1.2158-2.2393-1.5274-.5193-6.1528,3.958a2.3829,2.3829,0,0,0-.8017.6893,1.5065,1.5065,0,0,0-.1775.8751l.4738,2.1719"/><line class="cls-4" x1="34.2139" y1="65.2762" x2="35.1946" y2="66.877"/><line class="cls-4" x1="34.7054" y1="64.9673" x2="35.6861" y2="66.5681"/><line class="cls-4" x1="35.1969" y1="64.6584" x2="36.1546" y2="66.2217"/><line class="cls-4" x1="35.6884" y1="64.3495" x2="36.6691" y2="65.9503"/><line class="cls-4" x1="36.1799" y1="64.0406" x2="37.1606" y2="65.6414"/><line class="cls-4" x1="36.6348" y1="63.6719" x2="37.6177" y2="65.2762"/><line class="cls-4" x1="37.1262" y1="63.3629" x2="38.0807" y2="64.9209"/><line class="cls-4" x1="37.6177" y1="63.0539" x2="38.5623" y2="64.5957"/><line class="cls-4" x1="38.1049" y1="62.7411" x2="39.04" y2="64.2643"/><line class="cls-4" x1="38.6036" y1="62.429" x2="39.6452" y2="64.1293"/><line class="cls-4" x1="39.0917" y1="62.1265" x2="40.3126" y2="64.1193"/><line class="cls-4" x1="39.5625" y1="61.7838" x2="40.6341" y2="63.5328"/><path class="cls-4" d="M40.9587,62.9515"/><path class="cls-4" d="M40.0529,61.4731"/><path class="cls-4" d="M41.2823,62.3685"/><path class="cls-4" d="M40.5413,61.159"/><path class="cls-4" d="M41.6211,61.81"/><path class="cls-4" d="M41.0275,60.8414"/><path class="cls-4" d="M41.9239,61.1934"/><path class="cls-4" d="M41.5158,60.5273"/><line class="cls-4" x1="33.183" y1="68.6269" x2="34.8985" y2="68.3536"/><line class="cls-4" x1="33.096" y1="68.0362" x2="34.8115" y2="67.7629"/><line class="cls-4" x1="32.8421" y1="66.877" x2="34.9163" y2="67.3829"/><line class="cls-4" x1="33.3059" y1="65.8352" x2="35.0666" y2="67.0996"/><line class="cls-4" x1="33.3025" y1="69.1846" x2="34.9769" y2="68.7977"/><path class="cls-4" d="M35.0771,69.4085"/><path class="cls-4" d="M33.4288,69.6711"/><path class="cls-4" d="M35.1946,69.9315"/><path class="cls-4" d="M33.5517,70.1932"/><path class="cls-4" d="M35.2684,70.4614"/><path class="cls-4" d="M33.6746,70.7153"/><path class="cls-4" d="M35.3365,70.9922"/></g><g id="NEW_Inner" data-name="NEW Inner"><polyline class="cls-5" points="38.498 80.895 39.239 81.298 37.537 84.432 34.26 82.652 34.787 78.88 36.226 79.663"/><line class="cls-5" x1="36.9279" y1="80.0324" x2="37.6944" y2="80.459"/><polyline class="cls-5" points="39.239 81.298 42.805 74.798 37.883 72.126 35.134 77.186 35.583 77.429"/><line class="cls-5" x1="36.3645" y1="77.8543" x2="38.8249" y2="79.1909"/><line class="cls-5" x1="39.607" y1="79.6157" x2="40.0341" y2="79.849"/><line class="cls-5" x1="40.5623" y1="72.3767" x2="40.8027" y2="71.9623"/><line class="cls-5" x1="40.067" y1="73.3192" x2="40.137" y2="73.1878"/><polyline class="cls-5" points="41.961 72.576 38.611 70.785 40.375 67.537 42.867 62.952 44.866 64.036 43.069 67.344 44.16 67.907"/><polyline class="cls-5" points="42.756 73.007 42.966 73.138 43.897 71.426 44.13 71.552 45.062 69.838 42.712 68.558 40.803 71.962"/><polyline class="cls-5" points="28.839 75.556 28.905 75.855 32.779 74.984 32.095 71.802"/><line class="cls-5" x1="27.6289" y1="70.0887" x2="28.6759" y2="74.724"/><polyline class="cls-5" points="27.726 70.55 31.62 69.665 30.945 66.61 27.049 67.473 27.087 67.648 26.478 67.783"/><line class="cls-5" x1="32.0631" y1="69.5168" x2="31.6204" y2="69.616"/><line class="cls-5" x1="28.2978" y1="73.0915" x2="32.1905" y2="72.2457"/><line class="cls-5" x1="29.2285" y1="70.1958" x2="29.794" y2="72.7639"/><line class="cls-5" x1="31.6204" y1="69.665" x2="31.6844" y2="69.9475"/><line class="cls-5" x1="30.0938" y1="66.8033" x2="27.9868" y2="57.4499"/><line class="cls-5" x1="30.873" y1="58.8473" x2="28.4166" y2="59.4001"/><polyline class="cls-5" points="30.785 58.401 32.515 66.252 33.182 69.269 32.735 69.368"/><line class="cls-5" x1="30.9448" y1="66.6098" x2="32.5148" y2="66.2515"/><polyline class="cls-5" points="24.733 90.293 29.805 89.169 28.887 85.106"/><polyline class="cls-5" points="23.579 85.018 28.638 83.898 28.694 84.145"/><polyline class="cls-5" points="22.861 79.646 27.47 78.624 27.526 78.873"/><line class="cls-5" x1="27.733" y1="79.8081" x2="28.6378" y2="83.8979"/><line class="cls-5" x1="27.4699" y1="78.6244" x2="26.5723" y2="74.5671"/><path class="cls-5" d="M26.3582,73.6005c-.0069-.0312-.0559-.2484-.0559-.2484l-3.9767.8807"/><line class="cls-5" x1="25.3642" y1="69.2508" x2="26.3023" y2="73.3521"/><polyline class="cls-5" points="25.197 68.362 25.135 68.081 21.791 68.821"/><line class="cls-5" x1="25.6378" y1="67.9685" x2="25.1349" y2="68.0809"/><polyline class="cls-5" points="38.64 70.747 35.069 68.801 34.486 68.929"/><line class="cls-5" x1="33.1815" y1="69.2173" x2="33.603" y2="69.125"/><line class="cls-5" x1="29.8052" y1="89.1691" x2="30.2078" y2="89.0809"/><path class="cls-5" d="M31.074,88.8888l2.4108-.5233,1.0658.579,6.7845,3.6965"/><line class="cls-5" x1="43.2705" y1="75.2705" x2="42.7333" y2="74.9639"/><line class="cls-5" x1="44.0789" y1="75.7097" x2="47.4748" y2="77.5422"/><path class="cls-6" d="M38.8915,67.0943"/><line class="cls-5" x1="38.8706" y1="77.3353" x2="40.894" y2="73.7492"/></g><g id="NEW_Outer" data-name="NEW Outer"><polygon class="cls-7" points="32.599 109.55 28.43 108.963 22.809 83.58 19.852 54.132 52.479 65.35 43.265 89.916 32.599 109.55"/><polygon class="cls-4" points="20.412 54.875 23.237 83.45 28.749 108.665 32.349 109.146 42.971 89.636 51.926 65.588 20.412 54.875"/></g><g id="Anchor"><g class="cls-8"><path class="cls-9" d="M37.614,72.5319l3.0209,1.6233-.0314.0585L37.5825,72.59Zm2.7831,2.078-3.0058-1.6152-.0316.0585,3.0059,1.6153Zm-3.2232,1.8592,1.2-2.2286.4266.23L37.61,76.6811l1.2857.6931.0316-.0585-1.1888-.6378.211-.3917,1.1474.6166.0314-.0585-1.1472-.6166.2116-.393,1.1887.6387.0315-.0586-1.1887-.6386.212-.3933,1.1578.6221.0315-.0586-1.1579-.6221.2118-.3934,1.1978.6424.0314-.0586-1.1976-.6423.213-.3957,1.188.6393.0316-.0585-2.983-1.6046-.0315.0586,1.1716.63-.21.3905-1.1678-.6276-.0315.0587,1.1677.6274-.2117.3932L36.68,74.3562l-.0314.0586,1.1674.6272-.2119.3933-1.1509-.6184-.0315.0586,1.1509.6184-.2118.3931L36.1941,75.26l-.0315.0586,1.1665.6268-.2216.4114-1.1816-.635-.0314.0586Z"/></g><line class="cls-1" x2="7.5"/></g>
</g>
<g class="rooms">
<g id="storey-U2">
        <g id="product-U2-Y06-M">
        </g>
        <g id="product-U2-Y09-I">
        </g>
        <g id="product-U2-X10-M">
        </g>
        <g id="product-U2-Y07-M">
        </g>
        <g id="product-U2-X08-M">
        </g>
        <g id="product-U2-X12-S">
        </g>
        <g id="product-U2-X08-G">
        </g>
        <g id="product-U2-Y08-O">
        </g>
        <g id="product-U2-Y06-I">
        </g>
        <g id="product-U2-X07-G">
        </g>
        <g id="product-U2-X13-R">
        </g>
        <g id="product-U2-X07-H">
        </g>
        <g id="product-U2-Y08-L">
        </g>
        <g id="product-U2-Y08-I">
        </g>
        <g id="product-U2-Y07-J">
        </g>
        <g id="product-U2-X07-K">
        </g>
        <g id="product-U2-X05-A">
        </g>
        <g id="product-U2-X11-A">
        </g>
        <g id="product-U2-Y03-A">
        </g>
        <g id="product-U2-X12-J">
        </g>
        <g id="product-U2-X12-R">
        </g>
        <g id="product-U2-X12-Q">
        </g>
        <g id="product-U2-X12-O">
        </g>
        <g id="product-U2-X06-G">
        </g>
        <g id="product-U2-Y07-I">
        </g>
        <g id="product-U2-X11-I">
        </g>
        <g id="product-U2-X12-T">
        </g>
        <g id="product-U2-X12-R">
        </g>
        <g id="product-U2-X13-Q">
        </g>
    </g>
    <g id="storey-U3">
        <g id="product-U3-X10-M">
        </g>
        <g id="product-U3-Y03-A">
        </g>
        <g id="product-U3-X11-I">
        </g>
        <g id="product-U3-X12-J">
        </g>
        <g id="product-U3-X04-A">
        </g>
        <g id="product-U3-Y07-M">
        </g>
        <g id="product-U3-X07-A">
        </g>
        <g id="product-U3-Y09-I">
        </g>
        <g id="product-U3-Y6-I">
        </g>
        <g id="product-U3-Y08-I">
        </g>
        <g id="product-U3-Y08-L">
        </g>
        <g id="product-U3-Y07-J">
        </g>
        <g id="product-U3-X10-N">
        </g>
        <g id="product-U3-X07-H">
        </g>
        <g id="product-U3-X12-O">
        </g>
        <g id="product-U3-X12-R">
        </g>
        <g id="product-U3-X12Q">
        </g>
        <g id="product-U3-X13-P">
        </g>
        <g id="product-U3-X07-G">
        </g>
        <g id="product-U3-Y06-M">
        </g>
        <g id="product-U3-Y07-I">
        </g>
        <g id="product-U3-X07-K">
        </g>
        <g id="product-U3-X06-G">
        </g>
        <g id="product-U3-X08-G">
        </g>
    </g>
    <g id="storey-01">
        <g id="product-01-X14-J">
        </g>
        <g id="product-01-X08-O">
        </g>
        <g id="product-01-Y08-L">
        </g>
        <g id="product-01-Y08-M">
        </g>
        <g id="product-01-Y06-G">
        </g>
        <g id="product-01-X11-H">
        </g>
        <g id="product-01-Y09-C">
        </g>
        <g id="product-01-Y05-C">
        </g>
        <g id="product-01-X12-C">
        </g>
        <g id="product-01-X06-I">
        </g>
        <g id="product-01-Y08-N">
        </g>
        <g id="product-01-X11-F">
        </g>
        <g id="product-01-X06-G">
        </g>
        <g id="product-01-Y05-E">
        </g>
        <g id="product-01-X15-S">
        </g>
        <g id="product-01-X11-G">
        </g>
        <g id="product-01-X-15-T">
        </g>
        <g id="product-01-X05-I">
        </g>
        <g id="product-01-X15-G">
        </g>
        <g id="product-01-X12-A">
        </g>
        <g id="product-01-X7-K">
        </g>
        <g id="product-01-Y04-E">
        </g>
        <g id="product-01-X12-B">
        </g>
        <g id="product-01-X12-D">
        </g>
        <g id="product-01-Y6-M">
        </g>
        <g id="product-01-Y07-P">
        </g>
        <g id="product-01-X13-B">
        </g>
        <g id="product-01-X09-G">
        </g>
        <g id="product-01-X08-G">
        </g>
        <g id="product-01-Y06-I">
        </g>
        <g id="product-01-X08-P">
        </g>
        <g id="product-01-X13-A">
        </g>
        <g id="product-01-X10-A">
        </g>
        <g id="product-01-X12-P">
        </g>
        <g id="product-01-X08-Oc">
        </g>
        <g id="product-01-X14-H">
        </g>
        <g id="product-01-X14-F">
        </g>
        <g id="product-01-X13-Q">
        </g>
        <g id="product-01-X11-A">
        </g>
        <g id="product-01-X10-H">
        </g>
        <g id="product-01-X13-H">
        </g>
        <g id="product-01-X09-H">
        </g>
        <g id="product-01-X14-G">
        </g>
        <g id="product-01-X17-M">
        </g>
        <g id="product-01-Y08-G">
        </g>
        <g id="product-01-X07-H">
        </g>
        <g id="product-01-X07-G">
        </g>
        <g id="product-01-Y01-B">
        </g>
        <g id="product-01-X07-K">
        </g>
        <g id="product-01-X08-Oa">
        </g>
        <g id="product-01-X08-Pb">
        </g>
        <g id="product-01-X08-Pa">
        </g>
        <g id="product-01-X08-Ob">
        </g>
        <g id="product-??01-Y02-C">
        </g>
        <g id="product-??01-Y03-C">
        </g>
        <g id="product-01-Y06-H">
        </g>
        <g id="product-01-Y04-G">
        </g>
        <g id="product-01-Y07-O">
        </g>
        <g id="product-01-Y05-F">
        </g>
        <g id="product-01-X16-T">
        </g>
        <g id="product-01-X02-C">
        </g>
        <g id="product-01-X13-J">
        </g>
        <g id="product-01-X11-I">
        </g>
        <g id="product-01-Y09-G">
        </g>
        <g id="product-01-X04-I">
        </g>
        <g id="product-01-X12-Q">
        </g>
        <g id="product-01-X12-R">
        </g>
        <g id="product-01-X12-G">
        </g>
        <g id="product-01-Y04-F">
        </g>
    </g>
    <g id="storey-02">
        <g id="product-02-X06-K">
        </g>
        <g id="product-02-X11-G">
        </g>
        <g id="product-02-X07-G">
        </g>
        <g id="product-02-X10-L">
        </g>
        <g id="product-02-X07-J">
        </g>
        <g id="product-02-X07-H">
        </g>
        <g id="product-02-X10-H">
        </g>
        <g id="product-02-X10-J">
        </g>
        <g id="product-02-Y08-C">
        </g>
        <g id="product-02-X05-D">
        </g>
        <g id="product-02-X10-A">
        </g>
        <g id="product-02-X12-K">
        </g>
        <g id="product-02-X11-I">
        </g>
        <g id="product-XX-XX">
        </g>
        <g id="product-02-Y06-K">
        </g>
        <g id="product-02-Y09-G">
        </g>
        <g id="product-02-X12-C">
        </g>
        <g id="product-02-X12-D">
        </g>
        <g id="product-02-X09-E">
        </g>
        <g id="product-02-X08-K">
        </g>
        <g id="product-02-X09-K">
        </g>
        <g id="product-02-X05-C">
        </g>
        <g id="product-02-X08-E">
        </g>
        <g id="product-02-X10-B">
        </g>
        <g id="product-02-X09-E">
        </g>
        <g id="product-02-Y08-L">
        </g>
        <g id="product-02-Y10-G">
        </g>
        <g id="product-02-X13-S">
        </g>
        <g id="product-02-X11-A">
        </g>
        <g id="product-02-X11-E">
        </g>
        <g id="product-02-Y09-I">
        </g>
        <g id="product-02-Y08-G">
        </g>
        <g id="product-02-Y04-G">
        </g>
        <g id="product-02-Y03-G">
        </g>
        <g id="product-02-X06-E">
        </g>
        <g id="product-02-X07-I">
        </g>
        <g id="product-02-X09-Ga">
        </g>
        <g id="product-02-X07-E">
        </g>
        <g id="product-02-Y07-M">
        </g>
        <g id="product-02-X03-C">
        </g>
        <g id="product-02-Y05-G">
        </g>
        <g id="product-02-X08-H">
        </g>
        <g id="product-02-X08-I">
        </g>
        <g id="product-02-X13-A">
        </g>
        <g id="product-02-X09-Gb">
        </g>
        <g id="product-02-X09-Gc">
        </g>
        <g id="product-02-X12-H">
        </g>
        <g id="product-02-X09-Ha">
        </g>
        <g id="product-02-Y09-M">
        </g>
        <g id="product-02-Y06-G">
        </g>
        <g id="product-02-X12-F">
        </g>
        <g id="product-02-Y08-K">
        </g>
        <g id="product-02-X08-G">
        </g>
        <g id="product-02-X12-E">
        </g>
        <g id="product-02-X11-F">
        </g>
        <g id="product-02-X10-F">
        </g>
        <g id="product-02-Y09-H">
        </g>
        <g id="product-02-X04-A">
        </g>
        <g id="product-02-Y02-C">
        </g>
    </g>
    <g id="storey-04">
        <g id="product-04-X11-H">
        </g>
        <g id="product-04-Y03-D">
        </g>
        <g id="product-04-Y09-H">
        </g>
        <g id="product-04-Y09-G">
        </g>
        <g id="product-04-Y06-G">
        </g>
        <g id="product-04-Y06-H">
        </g>
        <g id="product-04-X06-C">
        </g>
        <g id="product-04-X06-D">
        </g>
        <g id="product-04-Y08-C">
        </g>
        <g id="product-04-Y08-D">
        </g>
        <g id="product-04-Y11-G">
        </g>
        <g id="product-04-X13-J">
        </g>
        <g id="product-04-X09-C">
        </g>
        <g id="product-04-X09-D">
        </g>
        <g id="product-04-X03-D">
        </g>
        <g id="product-04-X13-I">
        </g>
        <g id="product-04-Y12-G">
        </g>
        <g id="product-04-X11-D">
        </g>
        <g id="product-04-X11-C">
        </g>
        <g id="product-04-X08-G">
        </g>
        <g id="product-04-X03-C">
        </g>
        <g id="product-04-Y03-C">
        </g>
        <g id="product-04-Y06-C">
        </g>
        <g id="product-04-Y06-D">
        </g>
        <g id="product-04-X13-G">
        </g>
        <g id="product-04-X13-H">
        </g>
        <g id="product-04-X07-H">
        </g>
        <g id="product-04-X07-J">
        </g>
        <g id="product-04-X07-G">
        </g>
        <g id="product-04-X11-G">
        </g>
        <g id="product-04-Y10-I">
        </g>
        <g id="product-04-X11-I">
        </g>
        <g id="product-04-Y10-G">
        </g>
        <g id="product-04-Y10-L">
        </g>
        <g id="product-04-Y09-I">
        </g>
        <g id="product-04-Y06-I">
        </g>
        <g id="product-04-Y10-K">
        </g>
        <g id="product-04-X13-T">
        </g>
        <g id="product-04-Y-10-H">
        </g>
        <g id="product-04-Y10-A">
        </g>
        <g id="product-04-X02-A">
        </g>
        <g id="product-04-X13-A">
        </g>
        <g id="product-04-Y05-G">
        </g>
        <g id="product-04-X12-G">
        </g>
        <g id="product-04-Y12-A">
        </g>
        <g id="product-04-X10-I">
        </g>
        <g id="product-04-X10-H">
        </g>
        <g id="product-04-X10-G">
        </g>
        <g id="product-04-10-K">
        </g>
        <g id="product-04-Y11-H">
        </g>
        <g id="product-04-X10-L">
        </g>
        <g id="product-04-Y13-G">
        </g>
        <g id="product-04-Y07-G">
        </g>
        <g id="product-04-Y13-A">
        </g>
        <g id="product-04-X09-H">
        </g>
        <g id="product-04-Y10-D">
        </g>
        <g id="product-04-Y10-C">
        </g>
        <g id="product-04-X09-G">
        </g>
        <g id="product-XX-XX">
        </g>
        <g id="product-04-X10-A">
        </g>
        <g id="product-04-X13-D">
        </g>
        <g id="product-04-Y13-C">
        </g>
        <g id="product-04-Y02-A">
        </g>
        <g id="product-04-Y00-A">
        </g>
        <g id="product-04-Y05-H">
        </g>
        <g id="product-04-Y05-I">
        </g>
        <g id="product-04-Y05-J">
        </g>
        <g id="product-04-X03-A">
        </g>
        <g id="product-04-Y13-D">
        </g>
        <g id="product-04-Y04-H">
        </g>
        <g id="product-04-X13-C">
        </g>
    </g>
    <g id="storey-03">
        <g id="product-03-Y03-C">
        </g>
        <g id="product-03-Y12-G">
        </g>
        <g id="product-03-X14-H">
        </g>
        <g id="product-03-X09-D">
        </g>
        <g id="product-03-Y05-I">
        </g>
        <g id="product-03-Y06-G">
        </g>
        <g id="product-03-Y09-H">
        </g>
        <g id="product-03-X09-C">
        </g>
        <g id="product-03-Y06-H">
        </g>
        <g id="product-03-Y06-I">
        </g>
        <g id="product-03-X12-D">
        </g>
        <g id="product-03-X11-H">
        </g>
        <g id="product-03-Y04-H">
        </g>
        <g id="product-03-Y12-C">
        </g>
        <g id="product-03-Y09-G">
        </g>
        <g id="product-03-Y7-M">
        </g>
        <g id="product-03-Y10-K">
        </g>
        <g id="product-03-Y10-L">
        </g>
        <g id="product-03-Y05-H">
        </g>
        <g id="product-03-X12-C">
        </g>
        <g id="product-03-Y12-L">
        </g>
        <g id="product-03-Y10-G">
        </g>
        <g id="product-03-Y12-H">
        </g>
        <g id="product-03-X11-G">
        </g>
        <g id="product-03-Y07-D">
        </g>
        <g id="product-03-X13-T">
        </g>
        <g id="product-03-X10-I">
        </g>
        <g id="product-03-Y09-I">
        </g>
        <g id="product-03-X07-G">
        </g>
        <g id="product-03-X07-J">
        </g>
        <g id="product-03-X07-H">
        </g>
        <g id="product-03-X15-J">
        </g>
        <g id="product-03-X6-C">
        </g>
        <g id="product-03-Y07-C">
        </g>
        <g id="product-03-X14-G">
        </g>
        <g id="product-03-X6-D">
        </g>
        <g id="product-03-Y12-D">
        </g>
        <g id="product-03-Y07-G">
        </g>
        <g id="product-03-X04-D">
        </g>
        <g id="product-03-X13-G">
        </g>
        <g id="product-03-X15-H">
        </g>
        <g id="product-03-X04-C">
        </g>
        <g id="product-03-Y12-I">
        </g>
        <g id="product-03-Y08-H">
        </g>
        <g id="product-03-X14-G">
        </g>
        <g id="product-03-X14-I">
        </g>
        <g id="product-03-Y-10-H">
        </g>
        <g id="product-03-X11-I">
        </g>
        <g id="product-03-X10-L">
        </g>
        <g id="product-03-Y05-A">
        </g>
        <g id="product-03-Y05-C">
        </g>
        <g id="product-03-Y00-A">
        </g>
        <g id="product-03-Y10-I">
        </g>
        <g id="product-03-Y03-D">
        </g>
        <g id="product-03-X10-H">
        </g>
        <g id="product-03-10-K">
        </g>
        <g id="product-03-Y05-J">
        </g>
        <g id="product-03-X10-G">
        </g>
        <g id="product-03-Y11-G">
        </g>
        <g id="product-03-X06-A">
        </g>
        <g id="product-03-X08-G">
        </g>
    </g>
    <g id="storey-05">
        <g id="product-05-Y09-H">
        </g>
        <g id="product-05-X11-C">
        </g>
        <g id="product-05-X11-H">
        </g>
        <g id="product-05-Y04-G">
        </g>
        <g id="product-05-Y10-I">
        </g>
        <g id="product-05-X10-I">
        </g>
        <g id="product-05-X03-C">
        </g>
        <g id="product-05-Y10-G">
        </g>
        <g id="product-05-Y10-H">
        </g>
        <g id="product-05-Y10-K">
        </g>
        <g id="product-05-Y05-H">
        </g>
        <g id="product-05-Y05-I">
        </g>
        <g id="product-05-Y10-L">
        </g>
        <g id="product-05-Y05-J">
        </g>
        <g id="product-05-X09-D">
        </g>
        <g id="product-05-X10-K">
        </g>
        <g id="product-05-X10-L">
        </g>
        <g id="product-05-X05-C">
        </g>
        <g id="product-05-X10-G">
        </g>
        <g id="product-05-X10-H">
        </g>
        <g id="product-05-X06-G">
        </g>
        <g id="product-05-X06-H">
        </g>
        <g id="product-05-X05-D">
        </g>
        <g id="product-05-Y07-C">
        </g>
        <g id="product-05-Y09-C">
        </g>
        <g id="product-05-Y09-D">
        </g>
        <g id="product-05-Y03-D">
        </g>
        <g id="product-05-Y03-C">
        </g>
        <g id="product-05-X07-H">
        </g>
        <g id="product-05-Y07-D">
        </g>
        <g id="product-05-X07-J">
        </g>
        <g id="product-05-Y08-H">
        </g>
        <g id="product-05-Y07-M">
        </g>
        <g id="product-05-X03-D">
        </g>
        <g id="product-05-Y06-H">
        </g>
        <g id="product-05-Y06-G">
        </g>
        <g id="product-05-Y09-G">
        </g>
        <g id="product-05-X11-D">
        </g>
        <g id="product-05-X07-G">
        </g>
        <g id="product-05-X11-G">
        </g>
        <g id="product-05-X09-C">
        </g>
        <g id="product-05-X11-I">
        </g>
        <g id="product-05-Y06-I">
        </g>
        <g id="product-05-X13-T">
        </g>
        <g id="product-05-X02-A">
        </g>
        <g id="product-05-Y07-G">
        </g>
        <g id="product-05-X08-G">
        </g>
        <g id="product-05-Y02-A">
        </g>
        <g id="product-05-Y05-G">
        </g>
        <g id="product-05-Y05-A">
        </g>
        <g id="product-05-X04-A">
        </g>
        <g id="product-05-Y00-A">
        </g>
        <g id="product-05-Y09-I">
        </g>
    </g>
    <g id="storey-06">
        <g id="product-06-Y10-G">
        </g>
        <g id="product-06-Y10-L">
        </g>
        <g id="product-06-X06-A">
        </g>
        <g id="product-06-Y10-K">
        </g>
        <g id="product-06-Y07-M">
        </g>
        <g id="product-06-X07-G">
        </g>
        <g id="product-06-X11-H">
        </g>
        <g id="product-06-X11-G">
        </g>
        <g id="product-06-Y03-C">
        </g>
        <g id="product-06-Y03-D">
        </g>
        <g id="product-06-Y08-C">
        </g>
        <g id="product-06-Y06-H">
        </g>
        <g id="product-06-Y06-G">
        </g>
        <g id="product-06-Y09-G">
        </g>
        <g id="product-06-Y09-H">
        </g>
        <g id="product-06-X09-G">
        </g>
        <g id="product-06-X06-G">
        </g>
        <g id="product-06-Y09-A">
        </g>
        <g id="product-06-X08-D">
        </g>
        <g id="product-06-X10-I">
        </g>
        <g id="product-06-X10-H">
        </g>
        <g id="product-06-X10-G">
        </g>
        <g id="product-06-X03-A">
        </g>
        <g id="product-06-X07-H">
        </g>
        <g id="product-06-X07-J">
        </g>
        <g id="product-06-Y10-I">
        </g>
        <g id="product-06-X11-I">
        </g>
        <g id="product-06-Y06-I">
        </g>
        <g id="product-06-Y00-A">
        </g>
        <g id="product-06-Y02-A">
        </g>
        <g id="product-06-Y09-I">
        </g>
        <g id="product-06-X06-H">
        </g>
        <g id="product-06-X07-G">
        </g>
        <g id="product-06-X03-C">
        </g>
        <g id="product-06-X08-G">
        </g>
        <g id="product-06-X03-D">
        </g>
        <g id="product-06-Y05-D">
        </g>
        <g id="product-06-Y05-D">
        </g>
        <g id="product-06-X08-C">
        </g>
        <g id="product-06-Y08-D">
        </g>
        <g id="product-06-Y05-H">
        </g>
        <g id="product-06-Y05-J">
        </g>
        <g id="product-06-Y05-G">
        </g>
        <g id="product-06-Y05-J">
        </g>
        <g id="product-06-X05-C">
        </g>
        <g id="product-06-X05-D">
        </g>
        <g id="product-06-Y04-G">
        </g>
        <g id="product-06-X10-K">
        </g>
        <g id="product-06-X10-L">
        </g>
        <g id="product-06-X02-A">
        </g>
        <g id="product-06-Y10-H">
        </g>
        <g id="product-06-Y08-H">
        </g>
    </g>
    <g id="storey-07L">
        <g id="product-07-Y06-I">
            <path style="stroke:none; fill:none;"  pointer-events="visible" d="M38.0339,72.5817 L35.5994,77.0631 L38.1037,78.4235 L40.5382,73.9421 L38.0339,72.5817"/>
        </g>
        <g id="product-07-Y06-G">
            <path style="stroke:none; fill:none;"  pointer-events="visible" d="M42.3396,74.9207 L40.8018,74.0853 L39.656,76.1946 L41.1937,77.03 L42.3396,74.9207"/>
        </g>
        <g id="product-07-Y06-H">
            <path style="stroke:none; fill:none;"  pointer-events="visible" d="M39.9051,79.4021 L41.1159,77.1732 L39.5782,76.3378 L38.3673,78.5667 L39.9051,79.4021"/>
        </g>
        <g id="product-07-X07-G">
            <path style="stroke:none; fill:none;"  pointer-events="visible" d="M27.4625,67.7186 L27.6089,68.3795 L27.6577,68.3687 L27.7991,69.007 L27.7503,69.0178 L27.7513,69.0227 L27.8002,69.0119 L27.9415,69.6502 L27.8927,69.661 L28.0463,70.3547 L31.2585,69.6434 L30.6747,67.0072 L27.4625,67.7186"/>
        </g>
        <g id="product-07-X07-J">
            <path style="stroke:none; fill:none;"  pointer-events="visible" d="M29.8248,72.419 L31.7775,71.9866 L31.6442,71.385 L31.5954,71.3958 L31.454,70.7574 L31.5028,70.7466 L31.5018,70.7417 L31.453,70.7526 L31.3116,70.1142 L31.3604,70.1034 L31.3018,69.8386 L29.3491,70.2711 L29.8248,72.419"/>
        </g>
        <g id="product-07-X07-H">
            <path style="stroke:none; fill:none;"  pointer-events="visible" d="M28.0896,70.55 L28.5653,72.698 L29.6295,72.4623 L29.1538,70.3143 L28.0896,70.55"/>
        </g>
        <g id="product-07-X09-C">
        </g>
        <g id="product-07-X06-A">
            <path style="stroke:none; fill:none;"  pointer-events="visible" d="M22.9028,79.5463 L27.4245,78.5449 L26.5449,74.5731 L26.4991,74.5833 L26.2711,73.5541 L26.317,73.5439 L26.295,73.4445 L22.386,74.3102 L22.9028,79.5463"/>
        </g>
        <g id="product-07-X05-I">
            <path style="stroke:none; fill:none;"  pointer-events="visible" d="M35.3696,80.5697 L35.7765,80.7907 L36.4707,81.1678 L36.526,81.1979 L37.0544,80.2252 L35.8981,79.597 L35.3696,80.5697"/>
        </g>
        <g id="product-07-Y04-A">
            <path style="stroke:none; fill:none;"  pointer-events="visible" d="M43.6238,87.992 L43.6425,87.942 L43.3871,87.8032 L43.4263,87.7312 L37.5213,84.5234 L37.4727,84.6129 L37.0333,84.3743 L37.0877,84.2742 L34.2677,82.7422 L33.7662,86.2816 L33.7818,86.2838 L33.6446,87.254 L33.6287,87.2518 L33.498,88.1745 L34.6344,88.7897 L34.6364,88.7859 L35.0762,89.024 L35.0739,89.0283 L41.4006,92.4656 L43.1147,89.3103 L43.6238,87.992"/>
        </g>
        <g id="product-07-Y00-A">
            <path style="stroke:none; fill:none;"  pointer-events="visible" d="M24.7702,90.4792 L28.78,108.586 L32.3691,109.091 L41.2312,92.7774 L40.8094,92.5483 L40.8542,92.4658 L34.9494,89.2577 L34.8949,89.358 L34.4556,89.1194 L34.5396,88.9647 L33.4581,88.3511 L33.4806,88.1948 L29.7438,89.0172 L29.7758,89.1617 L29.5591,89.2099 L29.559,89.2097 L25.2143,90.1719 L25.2584,90.3711 L24.7702,90.4792"/>
        </g>
        <g id="product-07-X06-Ha">
            <path style="stroke:none; fill:none;"  pointer-events="visible" d="M30.5204,73.9683 L32.0745,73.6241 L31.8051,72.4076 L30.251,72.7518 L30.5204,73.9683"/>
        </g>
        <g id="product-07-X06-Hc">
            <path style="stroke:none; fill:none;"  pointer-events="visible" d="M32.1035,73.7549 L30.5494,74.0991 L30.8188,75.3156 L32.3729,74.9715 L32.1035,73.7549"/>
        </g>
        <g id="product-07-Y05-J">
            <path style="stroke:none; fill:none;"  pointer-events="visible" d="M34.655,81.8851 L35.8114,82.5133 L36.4764,81.2893 L35.32,80.6611 L34.655,81.8851"/>
        </g>
        <g id="product-07-Y05-K">
            <path style="stroke:none; fill:none;"  pointer-events="visible" d="M34.8861,79.0769 L34.5018,81.7883 L34.5729,81.8269 L35.7978,79.5721 L34.8861,79.0769"/>
        </g>
        <g id="product-07-Y07-C">
            <path style="stroke:none; fill:none;"  pointer-events="visible" d="M47.5883,77.385 L49.3632,72.6364 L48.6735,72.2617 L48.7577,72.0368 L48.808,71.9023 L49.4975,72.2769 L49.5917,72.0248 L45.5143,69.8098 L43.5384,73.4472 L40.9379,72.0345 L40.2042,73.3851 L42.8047,74.7978 L42.7481,74.9019 L42.7188,74.956 L44.1159,75.7149 L44.1116,75.7229 L46.8255,77.1971 L46.896,77.0089 L47.5883,77.385"/>
        </g>
        <g id="product-07-X08-C">
            <path style="stroke:none; fill:none;"  pointer-events="visible" d="M21.8242,68.6192 L25.0947,67.895 L25.0968,67.9045 L30.0742,66.8022 L28.8586,61.3133 L21.2691,62.9959 L21.8242,68.6192"/>
        </g>
        <g id="product-07-X05-A">
            <path style="stroke:none; fill:none;"  pointer-events="visible" d="M23.5425,84.9357 L28.5922,83.8174 L27.7126,79.8454 L27.6667,79.8556 L27.4387,78.8263 L27.4846,78.8162 L27.4626,78.7168 L22.9203,79.7227 L23.3483,84.0589 L23.5425,84.9357"/>
        </g>
        <g id="product-07-Y05-H">
            <path style="stroke:none; fill:none;"  pointer-events="visible" d="M39.0544,81.3116 L37.1458,80.2748 L35.9028,82.563 L37.8114,83.5998 L39.0544,81.3116"/>
        </g>
        <g id="product-07-Y07-H">
            <path style="stroke:none; fill:none;"  pointer-events="visible" d="M40.9031,71.887 L42.9227,72.9842 L43.8026,71.3645 L41.7829,70.2673 L40.9031,71.887"/>
        </g>
        <g id="product-07-Y07-I">
            <path style="stroke:none; fill:none;"  pointer-events="visible" d="M42.8923,70.7516 L43.77,69.1359 L42.7103,68.5602 L41.8326,70.1759 L42.8923,70.7516"/>
        </g>
        <g id="product-07-Y07-G">
            <path style="stroke:none; fill:none;"  pointer-events="visible" d="M43.0048,70.8127 L44.0856,71.3999 L44.9585,69.793 L43.8777,69.2058 L43.0048,70.8127"/>
        </g>
        <g id="product-07-X06-G">
            <path style="stroke:none; fill:none;"  pointer-events="visible" d="M30.7173,75.3381 L30.1495,72.7742 L28.4308,73.1548 L28.9986,75.7187 L30.7173,75.3381"/>
        </g>
        <g id="product-07-X04-E">
            <path style="stroke:none; fill:none;"  pointer-events="visible" d="M35.1343,77.186 L37.8839,72.1246 L40.0706,73.3125 L40.8043,71.962 L38.6175,70.774 L38.6156,70.7776 L34.9415,68.7816 L33.1624,69.1756 L33.1894,69.2977 L31.6175,69.6458 L32.1905,72.2331 L32.1711,72.2374 L32.7821,74.9966 L28.9254,75.8507 L28.3144,73.0915 L28.2949,73.0958 L27.0657,67.5453 L25.113,67.9778 L29.7661,88.9887 L33.4653,88.1695 L33.4701,88.1354 L33.4751,88.1361 L33.5996,87.2578 L33.601,87.2479 L33.6011,87.2479 L33.7371,86.2875 L33.7385,86.2776 L34.2205,82.8753 L34.2158,82.8746 L34.2367,82.7272 L34.2414,82.7279 L34.7849,78.8933 L36.1698,79.6456 L36.1698,79.6456 L38.8984,81.1279 L39.6942,79.6631 L35.1343,77.186"/>
        </g>
        <g id="product-07-X04-A">
            <path style="stroke:none; fill:none;"  pointer-events="visible" d="M24.71,90.2078 L29.7598,89.0895 L28.8802,85.1179 L28.8343,85.1281 L28.6064,84.099 L28.6523,84.0888 L28.6303,83.9892 L23.5805,85.1076 L24.71,90.2078"/>
        </g>
        <g id="product-07-Y08-J">
            <path style="stroke:none; fill:none;"  pointer-events="visible" d="M45.6793,64.4786 L46.7099,62.5814 L43.9635,61.6665 L43.3325,62.8281 L45.046,63.7589 L43.1041,67.3334 L44.0707,67.8585 L45.8549,64.574 L45.6793,64.4786"/>
        </g>
        <g id="product-07-Y05-A">
            <path style="stroke:none; fill:none;"  pointer-events="visible" d="M46.818,77.217 L46.8219,77.2066 L42.7097,74.9727 L40.0551,79.8592 L40.0288,79.8449 L39.2392,81.2982 L37.579,84.3544 L43.7337,87.6979 L47.454,77.7445 L46.7614,77.3682 L46.818,77.217"/>
        </g>
        <g id="product-07-Y08-C">
        </g>
        <g id="product-07-X07-K">
            <path style="stroke:none; fill:none;"  pointer-events="visible" d="M30.9762,66.75 L31.5847,69.4974 L33.0082,69.1821 L32.4486,66.6554 L32.1088,66.7306 L32.06,66.5099 L30.9762,66.75"/>
        </g>
        <g id="product-07-X07-A">
            <path style="stroke:none; fill:none;"  pointer-events="visible" d="M22.3686,74.1338 L26.2569,73.2727 L25.3774,69.3011 L25.3315,69.3113 L25.1036,68.2822 L25.1495,68.272 L25.1002,68.0495 L21.8393,68.7716 L22.3686,74.1338"/>
        </g>
        <g id="product-XX-XX">
            <path style="stroke:none; fill:none;"  pointer-events="visible" d="M38.6514,70.7116 L42.916,62.8615 L35.5677,58.8696 L30.5066,57.1835 L33.1494,69.117 L34.9728,68.7133 L38.6514,70.7116"/>
        </g>
    </g>
    <g id="storey-U1">
        <g id="product-U1-X08-M">
        </g>
        <g id="product-U1-X07-H">
        </g>
        <g id="product-U1-X13-R">
        </g>
        <g id="product-U1-X12-O">
        </g>
        <g id="product-U1-X07-G">
        </g>
        <g id="product-U1-X08-G">
        </g>
        <g id="product-U1-X08-I">
        </g>
        <g id="product-U1-Y07-J">
        </g>
        <g id="product-U1-Y03-A">
        </g>
        <g id="product-U1-X07-K">
        </g>
        <g id="product-U1-Y06-I">
        </g>
        <g id="product-U1-Y09-I">
        </g>
        <g id="product-U1-X12-N">
        </g>
        <g id="product-U1-X11-I">
        </g>
        <g id="product-U1-X12-J">
        </g>
        <g id="product-U1-X06-G">
        </g>
        <g id="product-U1-X15-S">
        </g>
        <g id="product-U1-X12-L">
        </g>
        <g id="product-U1-X08-Lb">
        </g>
        <g id="product-U1-X16-T">
        </g>
        <g id="product-U1-X09-O">
        </g>
        <g id="product-U1-X08-Ka">
        </g>
        <g id="product-U1-X08-La">
        </g>
        <g id="product-U1-Y07-O">
        </g>
        <g id="product-U1-X08-Kb">
        </g>
        <g id="product-U1-X08-Kc">
        </g>
        <g id="product-U1-X08-N">
        </g>
        <g id="product-U1-X11-O">
        </g>
        <g id="product-U1-X12-R">
        </g>
        <g id="product-U1-X12-Q">
        </g>
        <g id="product-U1-Y10-I">
        </g>
        <g id="product-U1-Y08-L">
        </g>
        <g id="product-U1-X12-T">
        </g>
        <g id="product-U1-Y07-I">
        </g>
        <g id="product-U1-Y11-O">
        </g>
        <g id="product-U1-X09-I">
        </g>
        <g id="product-U1-X12-M">
        </g>
        <g id="product-U1-Y06-M">
        </g>
        <g id="product-U1-Y08-I">
        </g>
        <g id="product-U1-Y07-P">
        </g>
        <g id="product-U1-Y08-N">
        </g>
        <g id="product-U1-X11-N">
        </g>
        <g id="product-U1-X05-A">
        </g>
    </g>
</g>
</svg>