<svg xmlns="http://www.w3.org/2000/svg" xmlns:xlink="http://www.w3.org/1999/xlink" viewBox="0 -85 90 90">
  <defs>
    <clipPath id="clip-path">
      <rect x="43.559" y="59.754" width="3.91" height="3.635" transform="translate(-30.38 71.708) rotate(-61.135)" style="fill: none"/>
    </clipPath>
    <clipPath id="clip-path-2">
      <rect x="24.476" y="46.099" width="3.635" height="3.91" transform="matrix(0.974, -0.227, 0.227, 0.974, -10.229, 7.229)" style="fill: none"/>
    </clipPath>
    <clipPath id="clip-path-3">
      <polygon points="38.887 77.524 35.727 75.787 37.614 72.364 40.774 74.1 38.887 77.524" style="fill: none"/>
    </clipPath>
  </defs>
  <g id='wrapper' transform='rotate(28), scale(1, -1)'>
  <title>U3</title>
  <g id="NEW_Inner" data-name="NEW Inner">
    <polyline points="32.998 36.751 33.298 38.107 35.003 37.73 36.404 35.15 35.486 34.651 35.209 34.713" style="fill: none;stroke: #b4897d;stroke-width: 0.079999998211861px"/>
    <polyline points="34.34 34.905 32.67 35.276 32.8 35.859 32.67 35.276 27.332 36.457 27.916 39.098 30.862 38.441 30.767 38.011" style="fill: none;stroke: #b4897d;stroke-width: 0.079999998211861px"/>
    <path d="M30.447,36.566l-.155-.764" style="fill: none;stroke: #b4897d;stroke-width: 0.079999998211861px"/>
    <polyline points="27.916 39.098 28.742 42.801 23.664 43.927 25.329 51.445 29.053 50.62 27.887 45.345" style="fill: none;stroke: #b4897d;stroke-width: 0.079999998211861px"/>
    <polyline points="27.387 43.097 27.887 45.345 24.157 46.174" style="fill: none;stroke: #b4897d;stroke-width: 0.079999998211861px"/>
    <polyline points="28.541 41.892 34.016 40.662 34.72 43.834 32.633 44.296 31.931 41.131" style="fill: none;stroke: #b4897d;stroke-width: 0.079999998211861px"/>
    <path d="M33.871,40.7s-.6-2.581-.573-2.588" style="fill: none;stroke: #b4897d;stroke-width: 0.079999998211861px"/>
    <line x1="36.132" y1="50.214" x2="34.72" y2="43.834" style="fill: none;stroke: #b4897d;stroke-width: 0.079999998211861px"/>
    <polyline points="35.351 46.686 35.705 46.607 46.971 52.686 44.396 57.431 48.881 59.869 46.304 64.614 42.952 62.794 44.958 59.102" style="fill: none;stroke: #b4897d;stroke-width: 0.079999998211861px"/>
    <line x1="45.383" y1="58.32" x2="45.533" y2="58.049" style="fill: none;stroke: #b4897d;stroke-width: 0.079999998211861px"/>
    <line x1="46.304" y1="64.614" x2="43.725" y2="69.359" style="fill: none;stroke: #b4897d;stroke-width: 0.079999998211861px"/>
    <line x1="41.292" y1="65.851" x2="42.952" y2="62.794" style="fill: none;stroke: #b4897d;stroke-width: 0.079999998211861px"/>
    <polyline points="45.015 66.984 41.664 65.137 40.222 64.382 40.001 64.789 38.869 65.021" style="fill: none;stroke: #b4897d;stroke-width: 0.079999998211861px"/>
    <line x1="38.562" y1="61.425" x2="39.372" y2="64.918" style="fill: none;stroke: #b4897d;stroke-width: 0.079999998211861px"/>
    <line x1="38.403" y1="60.567" x2="36.655" y2="52.575" style="fill: none;stroke: #b4897d;stroke-width: 0.079999998211861px"/>
    <line x1="36.573" y1="54.281" x2="37.008" y2="54.191" style="fill: none;stroke: #b4897d;stroke-width: 0.079999998211861px"/>
    <polyline points="35.633 54.489 29.836 55.773 28.712 50.702" style="fill: none;stroke: #b4897d;stroke-width: 0.079999998211861px"/>
    <polyline points="37.93 65.229 30.984 66.785 30.945 66.609 27.049 67.472 24.464 55.803 25.395 51.738 25.329 51.445" style="fill: none;stroke: #b4897d;stroke-width: 0.079999998211861px"/>
    <line x1="31.144" y1="67.509" x2="30.984" y2="66.785" style="fill: none;stroke: #b4897d;stroke-width: 0.079999998211861px"/>
    <line x1="31.464" y1="68.954" x2="31.685" y2="69.949" style="fill: none;stroke: #b4897d;stroke-width: 0.079999998211861px"/>
    <polyline points="32.005 71.393 32.19 72.233 28.295 73.097 27.049 67.472" style="fill: none;stroke: #b4897d;stroke-width: 0.079999998211861px"/>
    <line x1="31.6" y1="69.568" x2="27.705" y2="70.431" style="fill: none;stroke: #b4897d;stroke-width: 0.079999998211861px"/>
    <polyline points="22.423 79.744 29.423 78.193 28.295 73.097" style="fill: none;stroke: #b4897d;stroke-width: 0.079999998211861px"/>
    <line x1="33.673" y1="69.211" x2="31.621" y2="69.666" style="fill: none;stroke: #b4897d;stroke-width: 0.079999998211861px"/>
    <polyline points="34.51 69.038 37.218 68.427 37.839 68.777 37.648 69.13 37.764 69.192" style="fill: none;stroke: #b4897d;stroke-width: 0.079999998211861px"/>
    <polyline points="29.423 78.193 29.512 78.597 34.475 77.497 34.077 75.702 37.648 69.13" style="fill: none;stroke: #b4897d;stroke-width: 0.079999998211861px"/>
    <line x1="29.806" y1="78.536" x2="30.253" y2="80.549" style="fill: none;stroke: #b4897d;stroke-width: 0.079999998211861px"/>
    <polyline points="30.43 81.353 30.752 82.803 26.949 89.802 25.917 90.032" style="fill: none;stroke: #b4897d;stroke-width: 0.079999998211861px"/>
    <polyline points="34.475 77.497 34.958 77.39 38.359 79.237 43.11 70.492" style="fill: none;stroke: #b4897d;stroke-width: 0.079999998211861px"/>
    <polyline points="43.592 69.604 43.725 69.359 40.376 67.539 40.202 67.856" style="fill: none;stroke: #b4897d;stroke-width: 0.079999998211861px"/>
    <line x1="35.01" y1="77.419" x2="35.368" y2="76.755" style="fill: none;stroke: #b4897d;stroke-width: 0.079999998211861px"/>
    <polyline points="35.822 75.921 39.087 69.91 38.598 69.645" style="fill: none;stroke: #b4897d;stroke-width: 0.079999998211861px"/>
    <line x1="37.894" y1="72.13" x2="41.227" y2="73.942" style="fill: none;stroke: #b4897d;stroke-width: 0.079999998211861px"/>
    <polyline points="42.625 71.384 39.279 69.558 39.087 69.91" style="fill: none;stroke: #b4897d;stroke-width: 0.079999998211861px"/>
    <line x1="39.279" y1="69.558" x2="39.783" y2="68.629" style="fill: none;stroke: #b4897d;stroke-width: 0.079999998211861px"/>
    <line x1="40.586" y1="67.151" x2="40.376" y2="67.539" style="fill: none;stroke: #b4897d;stroke-width: 0.079999998211861px"/>
    <line x1="37.218" y1="68.427" x2="37.104" y2="67.854" style="fill: none;stroke: #b4897d;stroke-width: 0.079999998211861px"/>
    <line x1="36.891" y1="66.945" x2="36.581" y2="65.527" style="fill: none;stroke: #b4897d;stroke-width: 0.079999998211861px"/>
    <polygon points="72.406 40.272 22.623 13.227 6.067 16.894 14.024 52.822 16.025 52.379 22.129 79.809 25.923 90.982 40.543 98.925 72.406 40.272" style="fill: none;stroke: #b4897d;stroke-width: 0.16px"/>
  </g>
  <g id="NEW_Outer" data-name="NEW Outer">
    <polygon points="22.579 13.543 6.424 17.121 14.252 52.464 16.253 52.021 22.374 79.6 26.169 90.775 40.423 98.518 72 40.391 22.579 13.543" style="fill: none;stroke: #b4897d;stroke-width: 0.079999998211861px"/>
  </g>
  <g id="Anchor">
    <line x2="7.5" style="fill: none"/>
  </g>
  <g id="Stairs">
    <g style="clip-path: url(#clip-path)">
      <path d="M46.118,64l-2.972-1.646.032-.058,2.972,1.646Zm-2.729-2.1,2.957,1.638.032-.058-2.957-1.638Zm3.323-1.765h0l-.1-.053L45.39,62.291l-.42-.233.193-.346,0,0,.032-.058,0,0,.991-1.786-.046-.026v0l-1.2-.663-.033.058,1.147.635-.216.388-1.128-.625-.033.058,1.129.625-.216.389-1.169-.647-.033.058,1.17.647-.217.39-1.139-.631-.032.058,1.139.631-.216.39-1.132-.626-.032.058,1.132.626-.218.392L43.68,61.4l-.033.058L46.593,63.1l.032-.058-1.163-.646L45.676,62l1.149.636.032-.058-1.149-.636.217-.39,1.148.637.032-.058L45.957,61.5l.216-.389,1.132.627.032-.058-1.132-.627.216-.389,1.148.635.032-.058L46.454,60.6l.226-.408,1.162.644.032-.058Z" style="fill: #b4897d"/>
    </g>
    <line x1="47.874" y1="60.782" x2="45.899" y2="64.396" style="fill: none;stroke: #b4897d;stroke-width: 0.079999998211861px"/>
    <g style="clip-path: url(#clip-path-2)">
      <path d="M24.265,46.642l3.265-.754.015.065-3.265.753Zm3.386-.256-3.294.761.015.064,3.294-.761Zm-1.288,3.535h0l.107-.025L25.9,47.436l.468-.107.089.385h0l.015.065h0l.458,1.991.052-.012v0l1.333-.308-.015-.064-1.277.3-.1-.433,1.257-.29L28.17,48.9l-1.257.291-.1-.434,1.3-.3-.015-.065-1.3.3-.1-.434,1.269-.293-.015-.065-1.269.293-.1-.434,1.278-.293-.015-.065-1.277.293-.1-.436,1.3-.3-.014-.065-3.272.751.015.065,1.286-.294.1.431-1.28.3.015.065,1.28-.3.1.434-1.279.3.014.064,1.28-.3.1.434-1.261.291.015.065,1.261-.292.1.434-1.278.3.015.064,1.278-.3.105.454-1.295.3.015.065Z" style="fill: #b4897d"/>
    </g>
    <line x1="28.319" y1="49.452" x2="27.432" y2="45.458" style="fill: none;stroke: #b4897d;stroke-width: 0.079999998211861px"/>
    <g style="clip-path: url(#clip-path-3)">
      <path d="M37.659,72.525l2.972,1.646-.033.058-2.971-1.646Zm2.729,2.1-2.957-1.639-.033.058,2.957,1.639Zm-1.533,2.742.032-.058-1.169-.651.215-.388,1.129.625.032-.058-1.128-.625.216-.39,1.146.63.032-.058-1.146-.63.216-.389L39.569,76l.032-.058-1.139-.631.217-.39,1.124.624.032-.058-1.124-.624.217-.392,1.135.634.032-.058-2.906-1.624-.032.058,1.158.65-.215.387-1.148-.636-.033.058,1.149.636-.216.389L36.7,74.332l-.033.058,1.149.636-.216.39-1.133-.627-.032.058,1.132.627-.216.389-1.147-.635-.033.058,1.148.635-.226.408-1.163-.644-.032.058,1.163.644h0l.1.054,1.226-2.207.419.233-1.216,2.19Z" style="fill: #b4897d"/>
    </g>
    <line x1="38.829" y1="77.343" x2="40.839" y2="73.734" style="fill: none;stroke: #b4897d;stroke-width: 0.08px"/>
  </g>
  </g>
  <g class="rooms">
<g id="storey-U2">
        <g id="product-U2-Y06-M">
        </g>
        <g id="product-U2-Y09-I">
        </g>
        <g id="product-U2-X10-M">
        </g>
        <g id="product-U2-Y07-M">
        </g>
        <g id="product-U2-X08-M">
        </g>
        <g id="product-U2-X12-S">
        </g>
        <g id="product-U2-X08-G">
        </g>
        <g id="product-U2-Y08-O">
        </g>
        <g id="product-U2-Y06-I">
        </g>
        <g id="product-U2-X07-G">
        </g>
        <g id="product-U2-X13-R">
        </g>
        <g id="product-U2-X07-H">
        </g>
        <g id="product-U2-Y08-L">
        </g>
        <g id="product-U2-Y08-I">
        </g>
        <g id="product-U2-Y07-J">
        </g>
        <g id="product-U2-X07-K">
        </g>
        <g id="product-U2-X05-A">
        </g>
        <g id="product-U2-X11-A">
        </g>
        <g id="product-U2-Y03-A">
        </g>
        <g id="product-U2-X12-J">
        </g>
        <g id="product-U2-X12-R">
        </g>
        <g id="product-U2-X12-Q">
        </g>
        <g id="product-U2-X12-O">
        </g>
        <g id="product-U2-X06-G">
        </g>
        <g id="product-U2-Y07-I">
        </g>
        <g id="product-U2-X11-I">
        </g>
        <g id="product-U2-X12-T">
        </g>
        <g id="product-U2-X12-R">
        </g>
        <g id="product-U2-X13-Q">
        </g>
    </g>
    <g id="storey-U3">
        <g id="product-U3-X10-M">
            <path style="stroke:none; fill:none;"  pointer-events="visible" d="M27.8466,45.1722 L29.0921,50.7959 L30.1235,55.4531 L36.8115,53.972 L35.2555,46.9461 L35.2555,46.9461 L34.5844,43.9156 L32.1922,44.4454 L31.4787,41.2234 L29.0379,41.764 L29.3406,43.1308 L27.4855,43.5417 L27.8466,45.1722"/>
        </g>
        <g id="product-U3-Y03-A">
            <path style="stroke:none; fill:none;"  pointer-events="visible" d="M22.5789,13.5432 L6.42443,17.1208 L14.2517,52.4642 L16.2532,52.021 L16.9463,55.1506 L25.0348,53.3593 L25.3952,51.7381 L24.1237,45.9967 L24.1238,45.9967 L23.6626,43.9141 L28.7396,42.7897 L27.2801,36.1994 L30.6099,35.462 L33.1148,34.9073 L33.1717,35.1641 L35.4864,34.6514 L36.4044,35.1501 L35.0036,37.7286 L33.7987,37.9955 L35.7058,46.6069 L46.5051,52.4735 L51.7736,42.7752 L51.9933,42.8945 L46.7247,52.5928 L46.9558,52.7184 L44.6168,57.0241 L49.1026,59.461 L46.218,64.771 L41.2344,73.9448 L38.3498,79.2548 L34.9285,77.3962 L29.8058,78.5307 L30.7519,82.8026 L26.3637,90.8803 L40.423,98.5178 L71.9999,40.3911 L22.5788,13.5434 L22.5789,13.5432"/>
        </g>
        <g id="product-U3-X11-I">
            <path style="stroke:none; fill:none;"  pointer-events="visible" d="M25.8963,51.1657 L28.679,50.5494 L27.5763,45.5701 L24.7936,46.1863 L25.8963,51.1657"/>
        </g>
        <g id="product-U3-X12-J">
            <path style="stroke:none; fill:none;"  pointer-events="visible" d="M24.5758,45.8966 L27.7002,45.2046 L27.339,43.5741 L24.2147,44.266 L24.5758,45.8966"/>
        </g>
        <g id="product-U3-X04-A">
            <path style="stroke:none; fill:none;"  pointer-events="visible" d="M30.4347,82.758 L29.5129,78.5956 L29.2561,78.6524 L29.1993,78.3957 L22.4715,79.8856 L26.1348,90.6733 L30.4347,82.758"/>
        </g>
        <g id="product-U3-Y07-M">
            <path style="stroke:none; fill:none;"  pointer-events="visible" d="M39.683,64.8412 L36.5773,65.529 L37.2216,68.4386 L37.8362,68.7724 L39.2791,69.5563 L40.2898,67.6959 L41.349,65.7461 L39.683,64.8412"/>
        </g>
        <g id="product-U3-X07-A">
            <path style="stroke:none; fill:none;"  pointer-events="visible" d="M27.9525,75.8534 L28.4826,78.2471 L29.1344,78.1028 L24.3434,56.4694 L25.0348,53.3593 L16.9463,55.1506 L21.0144,73.5198 L27.1358,72.1641 L27.9525,75.8534"/>
        </g>
        <g id="product-U3-Y09-I">
            <path style="stroke:none; fill:none;"  pointer-events="visible" d="M45.767,58.3465 L43.3325,62.828 L45.8369,64.1884 L48.2714,59.707 L45.767,58.3465"/>
        </g>
        <g id="product-U3-Y6-I">
            <path style="stroke:none; fill:none;"  pointer-events="visible" d="M38.1037,78.4236 L40.5382,73.9421 L38.0339,72.5817 L35.5994,77.0631 L38.1037,78.4236"/>
        </g>
        <g id="product-U3-Y08-I">
            <path style="stroke:none; fill:none;"  pointer-events="visible" d="M45.8112,64.55 L43.175,63.1179 L42.0198,65.2444 L44.3045,66.4855 L44.656,66.6765 L45.8112,64.55"/>
        </g>
        <g id="product-U3-Y08-L">
            <path style="stroke:none; fill:none;"  pointer-events="visible" d="M40.7596,67.5643 L42.7367,68.6383 L43.8347,66.6171 L41.8576,65.5431 L40.7596,67.5643"/>
        </g>
        <g id="product-U3-Y07-J">
            <path style="stroke:none; fill:none;"  pointer-events="visible" d="M38.0175,72.1972 L40.8276,73.7238 L42.1502,71.289 L39.3401,69.7624 L38.0175,72.1972"/>
        </g>
        <g id="product-U3-X10-N">
            <path style="stroke:none; fill:none;"  pointer-events="visible" d="M46.2602,52.9243 L35.5466,47.1042 L37.1096,54.162 L39.4515,64.7368 L39.7056,64.6805 L41.4216,65.6125 L45.4595,58.1795 L43.8734,57.3178 L46.2602,52.9243"/>
        </g>
        <g id="product-U3-X07-H">
            <path style="stroke:none; fill:none;"  pointer-events="visible" d="M28.0896,70.55 L28.5653,72.698 L29.6295,72.4623 L29.1538,70.3143 L28.0896,70.55"/>
        </g>
        <g id="product-U3-X12-O">
            <path style="stroke:none; fill:none;"  pointer-events="visible" d="M30.8625,38.4408 L28.4216,38.9814 L28.9946,41.5687 L31.4354,41.0282 L31.4354,41.0281 L33.8276,40.4983 L32.7249,35.5191 L30.3327,36.0488 L30.8625,38.4408"/>
        </g>
        <g id="product-U3-X12-R">
            <path style="stroke:none; fill:none;"  pointer-events="visible" d="M31.9876,41.38 L32.5333,43.8444 L34.4735,43.4147 L33.9277,40.9503 L31.9876,41.38"/>
        </g>
        <g id="product-U3-X12Q">
            <path style="stroke:none; fill:none;"  pointer-events="visible" d="M30.624,38.2888 L30.1375,36.0921 L27.8919,36.5894 L28.3784,38.7862 L30.624,38.2888"/>
        </g>
        <g id="product-U3-X13-P">
            <path style="stroke:none; fill:none;"  pointer-events="visible" d="M33.2257,35.4081 L33.7447,37.7514 L34.8383,37.5092 L36.0653,35.2504 L35.4492,34.9157 L33.2257,35.4081"/>
        </g>
        <g id="product-U3-X07-G">
            <path style="stroke:none; fill:none;"  pointer-events="visible" d="M27.4625,67.7186 L28.0463,70.3547 L31.2585,69.6434 L30.6747,67.0072 L27.4625,67.7186"/>
        </g>
        <g id="product-U3-Y06-M">
            <path style="stroke:none; fill:none;"  pointer-events="visible" d="M37.768,68.9084 L34.0776,75.7017 L34.3642,76.9958 L35.0346,76.8473 L35.2537,76.9663 L37.8839,72.1246 L39.2066,69.6899 L37.768,68.9084"/>
        </g>
        <g id="product-U3-Y07-I">
            <path style="stroke:none; fill:none;"  pointer-events="visible" d="M39.4127,69.6289 L42.2228,71.1554 L43.2334,69.295 L42.882,69.1041 L40.4233,67.7685 L39.4127,69.6289"/>
        </g>
        <g id="product-U3-X07-K">
            <path style="stroke:none; fill:none;"  pointer-events="visible" d="M31.6038,69.5838 L37.0523,68.3771 L36.4289,65.5619 L30.9803,66.7685 L31.6038,69.5838"/>
        </g>
        <g id="product-U3-X06-G">
            <path style="stroke:none; fill:none;"  pointer-events="visible" d="M33.9169,75.6791 L37.6345,68.8358 L37.077,68.533 L31.6379,69.7376 L32.1905,72.2331 L28.539,73.0418 L29.6461,78.0407 L34.2158,77.0286 L33.9169,75.6791"/>
        </g>
        <g id="product-U3-X08-G">
            <path style="stroke:none; fill:none;"  pointer-events="visible" d="M25.972,51.5075 L24.8689,56.4696 L27.2936,67.418 L30.9451,66.6094 L30.9475,66.6201 L39.3285,64.764 L36.9866,54.1892 L36.8655,54.216 L29.8358,55.7729 L28.7504,50.8716 L25.9677,51.4879 L25.972,51.5075"/>
        </g>
    </g>
    <g id="storey-02">
        <g id="product-02-X06-K">
        </g>
        <g id="product-02-X11-G">
        </g>
        <g id="product-02-X07-G">
        </g>
        <g id="product-02-X10-L">
        </g>
        <g id="product-02-X07-J">
        </g>
        <g id="product-02-X07-H">
        </g>
        <g id="product-02-X10-H">
        </g>
        <g id="product-02-X10-J">
        </g>
        <g id="product-02-Y08-C">
        </g>
        <g id="product-02-X05-D">
        </g>
        <g id="product-02-X10-A">
        </g>
        <g id="product-02-X12-K">
        </g>
        <g id="product-02-X11-I">
        </g>
        <g id="product-XX-XX">
        </g>
        <g id="product-02-Y06-K">
        </g>
        <g id="product-02-Y09-G">
        </g>
        <g id="product-02-X12-C">
        </g>
        <g id="product-02-X12-D">
        </g>
        <g id="product-02-X09-E">
        </g>
        <g id="product-02-X08-K">
        </g>
        <g id="product-02-X09-K">
        </g>
        <g id="product-02-X05-C">
        </g>
        <g id="product-02-X08-E">
        </g>
        <g id="product-02-X10-B">
        </g>
        <g id="product-02-X09-E">
        </g>
        <g id="product-02-Y08-L">
        </g>
        <g id="product-02-Y10-G">
        </g>
        <g id="product-02-X13-S">
        </g>
        <g id="product-02-X11-A">
        </g>
        <g id="product-02-X11-E">
        </g>
        <g id="product-02-Y09-I">
        </g>
        <g id="product-02-Y08-G">
        </g>
        <g id="product-02-Y04-G">
        </g>
        <g id="product-02-Y03-G">
        </g>
        <g id="product-02-X06-E">
        </g>
        <g id="product-02-X07-I">
        </g>
        <g id="product-02-X09-Ga">
        </g>
        <g id="product-02-X07-E">
        </g>
        <g id="product-02-Y07-M">
        </g>
        <g id="product-02-X03-C">
        </g>
        <g id="product-02-Y05-G">
        </g>
        <g id="product-02-X08-H">
        </g>
        <g id="product-02-X08-I">
        </g>
        <g id="product-02-X13-A">
        </g>
        <g id="product-02-X09-Gb">
        </g>
        <g id="product-02-X09-Gc">
        </g>
        <g id="product-02-X12-H">
        </g>
        <g id="product-02-X09-Ha">
        </g>
        <g id="product-02-Y09-M">
        </g>
        <g id="product-02-Y06-G">
        </g>
        <g id="product-02-X12-F">
        </g>
        <g id="product-02-Y08-K">
        </g>
        <g id="product-02-X08-G">
        </g>
        <g id="product-02-X12-E">
        </g>
        <g id="product-02-X11-F">
        </g>
        <g id="product-02-X10-F">
        </g>
        <g id="product-02-Y09-H">
        </g>
        <g id="product-02-X04-A">
        </g>
        <g id="product-02-Y02-C">
        </g>
    </g>
    <g id="storey-01">
        <g id="product-01-X14-J">
        </g>
        <g id="product-01-X08-O">
        </g>
        <g id="product-01-Y08-L">
        </g>
        <g id="product-01-Y08-M">
        </g>
        <g id="product-01-Y06-G">
        </g>
        <g id="product-01-X11-H">
        </g>
        <g id="product-01-Y09-C">
        </g>
        <g id="product-01-Y05-C">
        </g>
        <g id="product-01-X12-C">
        </g>
        <g id="product-01-X06-I">
        </g>
        <g id="product-01-Y08-N">
        </g>
        <g id="product-01-X11-F">
        </g>
        <g id="product-01-X06-G">
        </g>
        <g id="product-01-Y05-E">
        </g>
        <g id="product-01-X15-S">
        </g>
        <g id="product-01-X11-G">
        </g>
        <g id="product-01-X-15-T">
        </g>
        <g id="product-01-X05-I">
        </g>
        <g id="product-01-X15-G">
        </g>
        <g id="product-01-X12-A">
        </g>
        <g id="product-01-X7-K">
        </g>
        <g id="product-01-Y04-E">
        </g>
        <g id="product-01-X12-B">
        </g>
        <g id="product-01-X12-D">
        </g>
        <g id="product-01-Y6-M">
        </g>
        <g id="product-01-Y07-P">
        </g>
        <g id="product-01-X13-B">
        </g>
        <g id="product-01-X09-G">
        </g>
        <g id="product-01-X08-G">
        </g>
        <g id="product-01-Y06-I">
        </g>
        <g id="product-01-X08-P">
        </g>
        <g id="product-01-X13-A">
        </g>
        <g id="product-01-X10-A">
        </g>
        <g id="product-01-X12-P">
        </g>
        <g id="product-01-X08-Oc">
        </g>
        <g id="product-01-X14-H">
        </g>
        <g id="product-01-X14-F">
        </g>
        <g id="product-01-X13-Q">
        </g>
        <g id="product-01-X11-A">
        </g>
        <g id="product-01-X10-H">
        </g>
        <g id="product-01-X13-H">
        </g>
        <g id="product-01-X09-H">
        </g>
        <g id="product-01-X14-G">
        </g>
        <g id="product-01-X17-M">
        </g>
        <g id="product-01-Y08-G">
        </g>
        <g id="product-01-X07-H">
        </g>
        <g id="product-01-X07-G">
        </g>
        <g id="product-01-Y01-B">
        </g>
        <g id="product-01-X07-K">
        </g>
        <g id="product-01-X08-Oa">
        </g>
        <g id="product-01-X08-Pb">
        </g>
        <g id="product-01-X08-Pa">
        </g>
        <g id="product-01-X08-Ob">
        </g>
        <g id="product-??01-Y02-C">
        </g>
        <g id="product-??01-Y03-C">
        </g>
        <g id="product-01-Y06-H">
        </g>
        <g id="product-01-Y04-G">
        </g>
        <g id="product-01-Y07-O">
        </g>
        <g id="product-01-Y05-F">
        </g>
        <g id="product-01-X16-T">
        </g>
        <g id="product-01-X02-C">
        </g>
        <g id="product-01-X13-J">
        </g>
        <g id="product-01-X11-I">
        </g>
        <g id="product-01-Y09-G">
        </g>
        <g id="product-01-X04-I">
        </g>
        <g id="product-01-X12-Q">
        </g>
        <g id="product-01-X12-R">
        </g>
        <g id="product-01-X12-G">
        </g>
        <g id="product-01-Y04-F">
        </g>
    </g>
    <g id="storey-U1">
        <g id="product-U1-X08-M">
        </g>
        <g id="product-U1-X07-H">
        </g>
        <g id="product-U1-X13-R">
        </g>
        <g id="product-U1-X12-O">
        </g>
        <g id="product-U1-X07-G">
        </g>
        <g id="product-U1-X08-G">
        </g>
        <g id="product-U1-X08-I">
        </g>
        <g id="product-U1-Y07-J">
        </g>
        <g id="product-U1-Y03-A">
        </g>
        <g id="product-U1-X07-K">
        </g>
        <g id="product-U1-Y06-I">
        </g>
        <g id="product-U1-Y09-I">
        </g>
        <g id="product-U1-X12-N">
        </g>
        <g id="product-U1-X11-I">
        </g>
        <g id="product-U1-X12-J">
        </g>
        <g id="product-U1-X06-G">
        </g>
        <g id="product-U1-X15-S">
        </g>
        <g id="product-U1-X12-L">
        </g>
        <g id="product-U1-X08-Lb">
        </g>
        <g id="product-U1-X16-T">
        </g>
        <g id="product-U1-X09-O">
        </g>
        <g id="product-U1-X08-Ka">
        </g>
        <g id="product-U1-X08-La">
        </g>
        <g id="product-U1-Y07-O">
        </g>
        <g id="product-U1-X08-Kb">
        </g>
        <g id="product-U1-X08-Kc">
        </g>
        <g id="product-U1-X08-N">
        </g>
        <g id="product-U1-X11-O">
        </g>
        <g id="product-U1-X12-R">
        </g>
        <g id="product-U1-X12-Q">
        </g>
        <g id="product-U1-Y10-I">
        </g>
        <g id="product-U1-Y08-L">
        </g>
        <g id="product-U1-X12-T">
        </g>
        <g id="product-U1-Y07-I">
        </g>
        <g id="product-U1-Y11-O">
        </g>
        <g id="product-U1-X09-I">
        </g>
        <g id="product-U1-X12-M">
        </g>
        <g id="product-U1-Y06-M">
        </g>
        <g id="product-U1-Y08-I">
        </g>
        <g id="product-U1-Y07-P">
        </g>
        <g id="product-U1-Y08-N">
        </g>
        <g id="product-U1-X11-N">
        </g>
        <g id="product-U1-X05-A">
        </g>
    </g>
    <g id="storey-07L">
        <g id="product-07-Y06-I">
        </g>
        <g id="product-07-Y06-G">
        </g>
        <g id="product-07-Y06-H">
        </g>
        <g id="product-07-X07-G">
        </g>
        <g id="product-07-X07-J">
        </g>
        <g id="product-07-X07-H">
        </g>
        <g id="product-07-X09-C">
        </g>
        <g id="product-07-X06-A">
        </g>
        <g id="product-07-X05-I">
        </g>
        <g id="product-07-Y04-A">
        </g>
        <g id="product-07-Y00-A">
        </g>
        <g id="product-07-X06-Ha">
        </g>
        <g id="product-07-X06-Hc">
        </g>
        <g id="product-07-Y05-J">
        </g>
        <g id="product-07-Y05-K">
        </g>
        <g id="product-07-Y07-C">
        </g>
        <g id="product-07-X08-C">
        </g>
        <g id="product-07-X05-A">
        </g>
        <g id="product-07-Y05-H">
        </g>
        <g id="product-07-Y07-H">
        </g>
        <g id="product-07-Y07-I">
        </g>
        <g id="product-07-Y07-G">
        </g>
        <g id="product-07-X06-G">
        </g>
        <g id="product-07-X04-E">
        </g>
        <g id="product-07-X04-A">
        </g>
        <g id="product-07-Y08-J">
        </g>
        <g id="product-07-Y05-A">
        </g>
        <g id="product-07-Y08-C">
        </g>
        <g id="product-07-X07-K">
        </g>
        <g id="product-07-X07-A">
        </g>
        <g id="product-XX-XX">
        </g>
    </g>
    <g id="storey-06">
        <g id="product-06-Y10-G">
        </g>
        <g id="product-06-Y10-L">
        </g>
        <g id="product-06-X06-A">
        </g>
        <g id="product-06-Y10-K">
        </g>
        <g id="product-06-Y07-M">
        </g>
        <g id="product-06-X07-G">
        </g>
        <g id="product-06-X11-H">
        </g>
        <g id="product-06-X11-G">
        </g>
        <g id="product-06-Y03-C">
        </g>
        <g id="product-06-Y03-D">
        </g>
        <g id="product-06-Y08-C">
        </g>
        <g id="product-06-Y06-H">
        </g>
        <g id="product-06-Y06-G">
        </g>
        <g id="product-06-Y09-G">
        </g>
        <g id="product-06-Y09-H">
        </g>
        <g id="product-06-X09-G">
        </g>
        <g id="product-06-X06-G">
        </g>
        <g id="product-06-Y09-A">
        </g>
        <g id="product-06-X08-D">
        </g>
        <g id="product-06-X10-I">
        </g>
        <g id="product-06-X10-H">
        </g>
        <g id="product-06-X10-G">
        </g>
        <g id="product-06-X03-A">
        </g>
        <g id="product-06-X07-H">
        </g>
        <g id="product-06-X07-J">
        </g>
        <g id="product-06-Y10-I">
        </g>
        <g id="product-06-X11-I">
        </g>
        <g id="product-06-Y06-I">
        </g>
        <g id="product-06-Y00-A">
        </g>
        <g id="product-06-Y02-A">
        </g>
        <g id="product-06-Y09-I">
        </g>
        <g id="product-06-X06-H">
        </g>
        <g id="product-06-X07-G">
        </g>
        <g id="product-06-X03-C">
        </g>
        <g id="product-06-X08-G">
        </g>
        <g id="product-06-X03-D">
        </g>
        <g id="product-06-Y05-D">
        </g>
        <g id="product-06-Y05-D">
        </g>
        <g id="product-06-X08-C">
        </g>
        <g id="product-06-Y08-D">
        </g>
        <g id="product-06-Y05-H">
        </g>
        <g id="product-06-Y05-J">
        </g>
        <g id="product-06-Y05-G">
        </g>
        <g id="product-06-Y05-J">
        </g>
        <g id="product-06-X05-C">
        </g>
        <g id="product-06-X05-D">
        </g>
        <g id="product-06-Y04-G">
        </g>
        <g id="product-06-X10-K">
        </g>
        <g id="product-06-X10-L">
        </g>
        <g id="product-06-X02-A">
        </g>
        <g id="product-06-Y10-H">
        </g>
        <g id="product-06-Y08-H">
        </g>
    </g>
    <g id="storey-03">
        <g id="product-03-Y03-C">
        </g>
        <g id="product-03-Y12-G">
        </g>
        <g id="product-03-X14-H">
        </g>
        <g id="product-03-X09-D">
        </g>
        <g id="product-03-Y05-I">
        </g>
        <g id="product-03-Y06-G">
        </g>
        <g id="product-03-Y09-H">
        </g>
        <g id="product-03-X09-C">
        </g>
        <g id="product-03-Y06-H">
        </g>
        <g id="product-03-Y06-I">
        </g>
        <g id="product-03-X12-D">
        </g>
        <g id="product-03-X11-H">
        </g>
        <g id="product-03-Y04-H">
        </g>
        <g id="product-03-Y12-C">
        </g>
        <g id="product-03-Y09-G">
        </g>
        <g id="product-03-Y7-M">
        </g>
        <g id="product-03-Y10-K">
        </g>
        <g id="product-03-Y10-L">
        </g>
        <g id="product-03-Y05-H">
        </g>
        <g id="product-03-X12-C">
        </g>
        <g id="product-03-Y12-L">
        </g>
        <g id="product-03-Y10-G">
        </g>
        <g id="product-03-Y12-H">
        </g>
        <g id="product-03-X11-G">
        </g>
        <g id="product-03-Y07-D">
        </g>
        <g id="product-03-X13-T">
        </g>
        <g id="product-03-X10-I">
        </g>
        <g id="product-03-Y09-I">
        </g>
        <g id="product-03-X07-G">
        </g>
        <g id="product-03-X07-J">
        </g>
        <g id="product-03-X07-H">
        </g>
        <g id="product-03-X15-J">
        </g>
        <g id="product-03-X6-C">
        </g>
        <g id="product-03-Y07-C">
        </g>
        <g id="product-03-X14-G">
        </g>
        <g id="product-03-X6-D">
        </g>
        <g id="product-03-Y12-D">
        </g>
        <g id="product-03-Y07-G">
        </g>
        <g id="product-03-X04-D">
        </g>
        <g id="product-03-X13-G">
        </g>
        <g id="product-03-X15-H">
        </g>
        <g id="product-03-X04-C">
        </g>
        <g id="product-03-Y12-I">
        </g>
        <g id="product-03-Y08-H">
        </g>
        <g id="product-03-X14-G">
        </g>
        <g id="product-03-X14-I">
        </g>
        <g id="product-03-Y-10-H">
        </g>
        <g id="product-03-X11-I">
        </g>
        <g id="product-03-X10-L">
        </g>
        <g id="product-03-Y05-A">
        </g>
        <g id="product-03-Y05-C">
        </g>
        <g id="product-03-Y00-A">
        </g>
        <g id="product-03-Y10-I">
        </g>
        <g id="product-03-Y03-D">
        </g>
        <g id="product-03-X10-H">
        </g>
        <g id="product-03-10-K">
        </g>
        <g id="product-03-Y05-J">
        </g>
        <g id="product-03-X10-G">
        </g>
        <g id="product-03-Y11-G">
        </g>
        <g id="product-03-X06-A">
        </g>
        <g id="product-03-X08-G">
        </g>
    </g>
    <g id="storey-04">
        <g id="product-04-X11-H">
        </g>
        <g id="product-04-Y03-D">
        </g>
        <g id="product-04-Y09-H">
        </g>
        <g id="product-04-Y09-G">
        </g>
        <g id="product-04-Y06-G">
        </g>
        <g id="product-04-Y06-H">
        </g>
        <g id="product-04-X06-C">
        </g>
        <g id="product-04-X06-D">
        </g>
        <g id="product-04-Y08-C">
        </g>
        <g id="product-04-Y08-D">
        </g>
        <g id="product-04-Y11-G">
        </g>
        <g id="product-04-X13-J">
        </g>
        <g id="product-04-X09-C">
        </g>
        <g id="product-04-X09-D">
        </g>
        <g id="product-04-X03-D">
        </g>
        <g id="product-04-X13-I">
        </g>
        <g id="product-04-Y12-G">
        </g>
        <g id="product-04-X11-D">
        </g>
        <g id="product-04-X11-C">
        </g>
        <g id="product-04-X08-G">
        </g>
        <g id="product-04-X03-C">
        </g>
        <g id="product-04-Y03-C">
        </g>
        <g id="product-04-Y06-C">
        </g>
        <g id="product-04-Y06-D">
        </g>
        <g id="product-04-X13-G">
        </g>
        <g id="product-04-X13-H">
        </g>
        <g id="product-04-X07-H">
        </g>
        <g id="product-04-X07-J">
        </g>
        <g id="product-04-X07-G">
        </g>
        <g id="product-04-X11-G">
        </g>
        <g id="product-04-Y10-I">
        </g>
        <g id="product-04-X11-I">
        </g>
        <g id="product-04-Y10-G">
        </g>
        <g id="product-04-Y10-L">
        </g>
        <g id="product-04-Y09-I">
        </g>
        <g id="product-04-Y06-I">
        </g>
        <g id="product-04-Y10-K">
        </g>
        <g id="product-04-X13-T">
        </g>
        <g id="product-04-Y-10-H">
        </g>
        <g id="product-04-Y10-A">
        </g>
        <g id="product-04-X02-A">
        </g>
        <g id="product-04-X13-A">
        </g>
        <g id="product-04-Y05-G">
        </g>
        <g id="product-04-X12-G">
        </g>
        <g id="product-04-Y12-A">
        </g>
        <g id="product-04-X10-I">
        </g>
        <g id="product-04-X10-H">
        </g>
        <g id="product-04-X10-G">
        </g>
        <g id="product-04-10-K">
        </g>
        <g id="product-04-Y11-H">
        </g>
        <g id="product-04-X10-L">
        </g>
        <g id="product-04-Y13-G">
        </g>
        <g id="product-04-Y07-G">
        </g>
        <g id="product-04-Y13-A">
        </g>
        <g id="product-04-X09-H">
        </g>
        <g id="product-04-Y10-D">
        </g>
        <g id="product-04-Y10-C">
        </g>
        <g id="product-04-X09-G">
        </g>
        <g id="product-XX-XX">
        </g>
        <g id="product-04-X10-A">
        </g>
        <g id="product-04-X13-D">
        </g>
        <g id="product-04-Y13-C">
        </g>
        <g id="product-04-Y02-A">
        </g>
        <g id="product-04-Y00-A">
        </g>
        <g id="product-04-Y05-H">
        </g>
        <g id="product-04-Y05-I">
        </g>
        <g id="product-04-Y05-J">
        </g>
        <g id="product-04-X03-A">
        </g>
        <g id="product-04-Y13-D">
        </g>
        <g id="product-04-Y04-H">
        </g>
        <g id="product-04-X13-C">
        </g>
    </g>
    <g id="storey-05">
        <g id="product-05-Y09-H">
        </g>
        <g id="product-05-X11-C">
        </g>
        <g id="product-05-X11-H">
        </g>
        <g id="product-05-Y04-G">
        </g>
        <g id="product-05-Y10-I">
        </g>
        <g id="product-05-X10-I">
        </g>
        <g id="product-05-X03-C">
        </g>
        <g id="product-05-Y10-G">
        </g>
        <g id="product-05-Y10-H">
        </g>
        <g id="product-05-Y10-K">
        </g>
        <g id="product-05-Y05-H">
        </g>
        <g id="product-05-Y05-I">
        </g>
        <g id="product-05-Y10-L">
        </g>
        <g id="product-05-Y05-J">
        </g>
        <g id="product-05-X09-D">
        </g>
        <g id="product-05-X10-K">
        </g>
        <g id="product-05-X10-L">
        </g>
        <g id="product-05-X05-C">
        </g>
        <g id="product-05-X10-G">
        </g>
        <g id="product-05-X10-H">
        </g>
        <g id="product-05-X06-G">
        </g>
        <g id="product-05-X06-H">
        </g>
        <g id="product-05-X05-D">
        </g>
        <g id="product-05-Y07-C">
        </g>
        <g id="product-05-Y09-C">
        </g>
        <g id="product-05-Y09-D">
        </g>
        <g id="product-05-Y03-D">
        </g>
        <g id="product-05-Y03-C">
        </g>
        <g id="product-05-X07-H">
        </g>
        <g id="product-05-Y07-D">
        </g>
        <g id="product-05-X07-J">
        </g>
        <g id="product-05-Y08-H">
        </g>
        <g id="product-05-Y07-M">
        </g>
        <g id="product-05-X03-D">
        </g>
        <g id="product-05-Y06-H">
        </g>
        <g id="product-05-Y06-G">
        </g>
        <g id="product-05-Y09-G">
        </g>
        <g id="product-05-X11-D">
        </g>
        <g id="product-05-X07-G">
        </g>
        <g id="product-05-X11-G">
        </g>
        <g id="product-05-X09-C">
        </g>
        <g id="product-05-X11-I">
        </g>
        <g id="product-05-Y06-I">
        </g>
        <g id="product-05-X13-T">
        </g>
        <g id="product-05-X02-A">
        </g>
        <g id="product-05-Y07-G">
        </g>
        <g id="product-05-X08-G">
        </g>
        <g id="product-05-Y02-A">
        </g>
        <g id="product-05-Y05-G">
        </g>
        <g id="product-05-Y05-A">
        </g>
        <g id="product-05-X04-A">
        </g>
        <g id="product-05-Y00-A">
        </g>
        <g id="product-05-Y09-I">
        </g>
    </g>
</g>
</svg>
