<svg xmlns="http://www.w3.org/2000/svg" xmlns:xlink="http://www.w3.org/1999/xlink" viewBox="0 -85 90 90">
  <defs>
    <clipPath id="clip-path">
      <rect x="43.559" y="59.754" width="3.91" height="3.635" transform="translate(-30.38 71.708) rotate(-61.135)" style="fill: none"/>
    </clipPath>
    <clipPath id="clip-path-2">
      <rect x="24.476" y="46.099" width="3.635" height="3.91" transform="matrix(0.974, -0.227, 0.227, 0.974, -10.229, 7.229)" style="fill: none"/>
    </clipPath>
    <clipPath id="clip-path-3">
      <polygon points="38.887 77.524 35.727 75.787 37.614 72.364 40.774 74.1 38.887 77.524" style="fill: none"/>
    </clipPath>
  </defs>
  <g id='wrapper' transform='rotate(28), scale(1, -1)'>
  <title>U2</title>
  <g id="NEW_Inner" data-name="NEW Inner">
    <polyline points="31.998 71.367 32.19 72.237 28.296 73.101 29.514 78.601 34.999 77.417 38.359 79.237 41.234 73.945 37.885 72.13 35.822 75.921" style="fill: none;stroke: #b4897d;stroke-width: 0.079999998211861px"/>
    <polyline points="28.296 73.101 27.706 70.435 31.6 69.572 31.464 68.953" style="fill: none;stroke: #b4897d;stroke-width: 0.079999998211861px"/>
    <line x1="31.6" y1="69.572" x2="31.685" y2="69.949" style="fill: none;stroke: #b4897d;stroke-width: 0.079999998211861px"/>
    <polyline points="31.144 67.508 30.945 66.615 27.05 67.476 27.706 70.435" style="fill: none;stroke: #b4897d;stroke-width: 0.079999998211861px"/>
    <polyline points="36.891 66.947 36.582 65.551 30.985 66.789" style="fill: none;stroke: #b4897d;stroke-width: 0.079999998211861px"/>
    <polyline points="37.071 67.759 37.219 68.431 34.519 69.033" style="fill: none;stroke: #b4897d;stroke-width: 0.079999998211861px"/>
    <line x1="33.675" y1="69.22" x2="31.622" y2="69.665" style="fill: none;stroke: #b4897d;stroke-width: 0.079999998211861px"/>
    <polyline points="34.485 77.528 34.078 75.706 37.841 68.775 37.219 68.431" style="fill: none;stroke: #b4897d;stroke-width: 0.079999998211861px"/>
    <line x1="34.999" y1="77.417" x2="35.368" y2="76.755" style="fill: none;stroke: #b4897d;stroke-width: 0.079999998211861px"/>
    <line x1="41.234" y1="73.945" x2="43.11" y2="70.492" style="fill: none;stroke: #b4897d;stroke-width: 0.079999998211861px"/>
    <polyline points="42.629 71.367 39.279 69.556 37.885 72.13" style="fill: none;stroke: #b4897d;stroke-width: 0.079999998211861px"/>
    <line x1="39.783" y1="68.629" x2="39.279" y2="69.556" style="fill: none;stroke: #b4897d;stroke-width: 0.079999998211861px"/>
    <line x1="39.087" y1="69.917" x2="38.6" y2="69.651" style="fill: none;stroke: #b4897d;stroke-width: 0.079999998211861px"/>
    <line x1="37.651" y1="69.134" x2="37.808" y2="69.219" style="fill: none;stroke: #b4897d;stroke-width: 0.079999998211861px"/>
    <line x1="40.242" y1="67.784" x2="40.586" y2="67.151" style="fill: none;stroke: #b4897d;stroke-width: 0.079999998211861px"/>
    <polyline points="43.592 69.604 43.726 69.362 40.377 67.535" style="fill: none;stroke: #b4897d;stroke-width: 0.079999998211861px"/>
    <polyline points="41.292 65.851 41.665 65.169 45.016 66.991 43.726 69.362" style="fill: none;stroke: #b4897d;stroke-width: 0.079999998211861px"/>
    <polyline points="45.016 66.991 46.305 64.618 42.953 62.798 41.665 65.169" style="fill: none;stroke: #b4897d;stroke-width: 0.079999998211861px"/>
    <line x1="37.984" y1="65.239" x2="36.582" y2="65.551" style="fill: none;stroke: #b4897d;stroke-width: 0.079999998211861px"/>
    <polyline points="38.834 65.051 40.001 64.792 43.521 58.307" style="fill: none;stroke: #b4897d;stroke-width: 0.079999998211861px"/>
    <line x1="44.958" y1="59.102" x2="42.953" y2="62.798" style="fill: none;stroke: #b4897d;stroke-width: 0.079999998211861px"/>
    <polyline points="46.305 64.618 48.882 59.873 45.532 58.052 45.383 58.32" style="fill: none;stroke: #b4897d;stroke-width: 0.079999998211861px"/>
    <polyline points="43.981 57.462 44.088 57.269 44.396 57.435 45.532 58.052 44.396 57.435 46.973 52.691 35.418 46.451 35.305 46.475 35.193 45.978" style="fill: none;stroke: #b4897d;stroke-width: 0.079999998211861px"/>
    <line x1="39.396" y1="64.927" x2="35.305" y2="46.475" style="fill: none;stroke: #b4897d;stroke-width: 0.079999998211861px"/>
    <polyline points="37.828 65.283 35.451 54.534 29.837 55.777 28.712 50.701 25.33 51.449 25.396 51.743 24.465 55.807 27.05 67.476" style="fill: none;stroke: #b4897d;stroke-width: 0.079999998211861px"/>
    <line x1="36.699" y1="54.257" x2="37.012" y2="54.183" style="fill: none;stroke: #b4897d;stroke-width: 0.079999998211861px"/>
    <line x1="35.88" y1="54.439" x2="35.451" y2="54.534" style="fill: none;stroke: #b4897d;stroke-width: 0.079999998211861px"/>
    <polyline points="25.33 51.449 24.162 46.177 27.886 45.352 29.053 50.625 28.712 50.701" style="fill: none;stroke: #b4897d;stroke-width: 0.079999998211861px"/>
    <polyline points="24.162 46.177 23.663 43.914 27.384 43.09 27.886 45.352 28.18 45.289" style="fill: none;stroke: #b4897d;stroke-width: 0.079999998211861px"/>
    <polyline points="27.384 43.09 28.74 42.79 27.333 36.462 32.672 35.28 32.8 35.859" style="fill: none;stroke: #b4897d;stroke-width: 0.079999998211861px"/>
    <polyline points="30.767 38.011 30.862 38.441 27.925 39.101" style="fill: none;stroke: #b4897d;stroke-width: 0.079999998211861px"/>
    <line x1="30.447" y1="36.566" x2="30.265" y2="35.812" style="fill: none;stroke: #b4897d;stroke-width: 0.079999998211861px"/>
    <line x1="32.672" y1="35.28" x2="34.34" y2="34.905" style="fill: none;stroke: #b4897d;stroke-width: 0.079999998211861px"/>
    <polyline points="35.209 34.713 35.486 34.651 36.406 35.155 35.55 36.723" style="fill: none;stroke: #b4897d;stroke-width: 0.079999998211861px"/>
    <polyline points="35.125 37.506 35.004 37.734 33.299 38.11 32.998 36.751" style="fill: none;stroke: #b4897d;stroke-width: 0.079999998211861px"/>
    <polyline points="33.299 38.11 33.872 40.698 28.542 41.879" style="fill: none;stroke: #b4897d;stroke-width: 0.079999998211861px"/>
    <polyline points="29.049 45.096 32.633 44.301 31.926 41.129" style="fill: none;stroke: #b4897d;stroke-width: 0.079999998211861px"/>
    <polyline points="32.633 44.301 34.721 43.839 34.931 44.794" style="fill: none;stroke: #b4897d;stroke-width: 0.079999998211861px"/>
    <polyline points="33.872 40.698 34.018 40.665 34.721 43.839" style="fill: none;stroke: #b4897d;stroke-width: 0.079999998211861px"/>
    <polyline points="39.306 43.661 39.962 44.002 41.053 42.016 36.028 39.304 35.757 39.771 35.845 40.164" style="fill: none;stroke: #b4897d;stroke-width: 0.079999998211861px"/>
    <polyline points="36.065 41.153 36.253 41.998 36.825 42.313" style="fill: none;stroke: #b4897d;stroke-width: 0.079999998211861px"/>
    <line x1="37.722" y1="42.785" x2="38.443" y2="43.177" style="fill: none;stroke: #b4897d;stroke-width: 0.079999998211861px"/>
    <line x1="39.15" y1="40.989" x2="38.073" y2="42.976" style="fill: none;stroke: #b4897d;stroke-width: 0.079999998211861px"/>
    <line x1="36.316" y1="42.033" x2="37.393" y2="40.027" style="fill: none;stroke: #b4897d;stroke-width: 0.079999998211861px"/>
    <polygon points="22.624 13.231 6.068 16.898 14.024 52.826 16.026 52.383 22.047 79.57 25.924 90.986 40.544 98.929 72.406 40.276 22.624 13.231" style="fill: none;stroke: #b4897d;stroke-width: 0.16px"/>
    <polygon points="22.579 13.543 6.424 17.121 14.252 52.464 16.253 52.021 22.335 79.485 26.169 90.775 40.423 98.518 72 40.391 22.579 13.543" style="fill: none;stroke: #b4897d;stroke-width: 0.079999998211861px"/>
  </g>
  <g id="Anchor">
    <line x2="7.5" style="fill: none"/>
  </g>
  <g id="Stairs">
    <g style="clip-path: url(#clip-path)">
      <path d="M46.118,64l-2.972-1.646.032-.058,2.972,1.646Zm-2.729-2.1,2.957,1.638.032-.058-2.957-1.638Zm3.323-1.765h0l-.1-.053L45.39,62.291l-.42-.233.193-.346,0,0,.032-.058,0,0,.991-1.786-.046-.026v0l-1.2-.663-.033.058,1.147.635-.216.388-1.128-.625-.033.058,1.129.625-.216.389-1.169-.647-.033.058,1.17.647-.217.39-1.139-.631-.032.058,1.139.631-.216.39-1.132-.626-.032.058,1.132.626-.218.392L43.68,61.4l-.033.058L46.593,63.1l.032-.058-1.163-.646L45.676,62l1.149.636.032-.058-1.149-.636.217-.39,1.148.637.032-.058L45.957,61.5l.216-.389,1.132.627.032-.058-1.132-.627.216-.389,1.148.635.032-.058L46.454,60.6l.226-.408,1.162.644.032-.058Z" style="fill: #b4897d"/>
    </g>
    <line x1="47.874" y1="60.782" x2="45.899" y2="64.396" style="fill: none;stroke: #b4897d;stroke-width: 0.079999998211861px"/>
    <g style="clip-path: url(#clip-path-2)">
      <path d="M24.265,46.642l3.265-.754.015.065-3.265.753Zm3.386-.256-3.294.761.015.064,3.294-.761Zm-1.288,3.535h0l.107-.025L25.9,47.436l.468-.107.089.385h0l.015.065h0l.458,1.991.052-.012v0l1.333-.308-.015-.064-1.277.3-.1-.433,1.257-.29L28.17,48.9l-1.257.291-.1-.434,1.3-.3-.015-.065-1.3.3-.1-.434,1.269-.293-.015-.065-1.269.293-.1-.434,1.278-.293-.015-.065-1.277.293-.1-.436,1.3-.3-.014-.065-3.272.751.015.065,1.286-.294.1.431-1.28.3.015.065,1.28-.3.1.434-1.279.3.014.064,1.28-.3.1.434-1.261.291.015.065,1.261-.292.1.434-1.278.3.015.064,1.278-.3.105.454-1.295.3.015.065Z" style="fill: #b4897d"/>
    </g>
    <line x1="28.319" y1="49.452" x2="27.432" y2="45.458" style="fill: none;stroke: #b4897d;stroke-width: 0.079999998211861px"/>
    <g style="clip-path: url(#clip-path-3)">
      <path d="M37.659,72.525l2.972,1.646-.033.058-2.971-1.646Zm2.729,2.1-2.957-1.639-.033.058,2.957,1.639Zm-1.533,2.742.032-.058-1.169-.651.215-.388,1.129.625.032-.058-1.128-.625.216-.39,1.146.63.032-.058-1.146-.63.216-.389L39.569,76l.032-.058-1.139-.631.217-.39,1.124.624.032-.058-1.124-.624.217-.392,1.135.634.032-.058-2.906-1.624-.032.058,1.158.65-.215.387-1.148-.636-.033.058,1.149.636-.216.389L36.7,74.332l-.033.058,1.149.636-.216.39-1.133-.627-.032.058,1.132.627-.216.389-1.147-.635-.033.058,1.148.635-.226.408-1.163-.644-.032.058,1.163.644h0l.1.054,1.226-2.207.419.233-1.216,2.19Z" style="fill: #b4897d"/>
    </g>
    <line x1="38.829" y1="77.343" x2="40.839" y2="73.734" style="fill: none;stroke: #b4897d;stroke-width: 0.08px"/>
  </g>

  <g class="rooms">
<g id="storey-U2">
        <g id="product-U2-Y06-M">
            <path style="stroke:none; fill:none;"  pointer-events="visible" d="M37.768,68.9084 L34.0776,75.7017 L34.3642,76.9958 L35.0346,76.8473 L35.2537,76.9663 L37.8839,72.1246 L38.6268,70.7571 L39.2013,69.6995 L39.2013,69.6995 L39.2065,69.6898 L37.768,68.9084"/>
        </g>
        <g id="product-U2-Y09-I">
            <path style="stroke:none; fill:none;"  pointer-events="visible" d="M43.3323,62.8281 L45.8367,64.1885 L48.2712,59.7071 L45.7669,58.3466 L45.7192,58.4346 L45.2371,59.3221 L43.3323,62.8281"/>
        </g>
        <g id="product-U2-X10-M">
            <path style="stroke:none; fill:none;"  pointer-events="visible" d="M27.8963,45.3968 L29.0963,50.8155 L30.1234,55.4531 L36.8115,53.972 L35.2555,46.9461 L35.2309,46.8348 L34.5844,43.9156 L32.1922,44.4454 L27.8963,45.3968"/>
        </g>
        <g id="product-U2-Y07-M">
            <path style="stroke:none; fill:none;"  pointer-events="visible" d="M41.7123,65.0774 L45.4594,58.1796 L44.0165,57.3958 L40.0183,64.7557 L38.8574,65.0128 L37.8908,65.2268 L37.4249,65.33 L37.4272,65.3408 L36.5665,65.5314 L37.2088,68.4316 L37.6973,68.697 L39.2791,69.5563 L40.2898,67.6959 L41.7123,65.0774"/>
        </g>
        <g id="product-U2-X08-M">
            <path style="stroke:none; fill:none;"  pointer-events="visible" d="M35.3134,54.5598 L37.6529,65.1238 L39.3007,64.7589 L36.9612,54.1949 L35.3134,54.5598"/>
        </g>
        <g id="product-U2-X12-S">
            <path style="stroke:none; fill:none;"  pointer-events="visible" d="M27.8691,45.2738 L32.165,44.3224 L31.4787,41.2234 L29.0379,41.764 L29.3406,43.1309 L27.4855,43.5417 L27.8423,45.1527 L27.8466,45.1722 L27.8466,45.1722 L27.8691,45.2738"/>
        </g>
        <g id="product-U2-X08-G">
            <path style="stroke:none; fill:none;"  pointer-events="visible" d="M24.8689,56.4696 L27.2936,67.418 L30.9451,66.6094 L37.6041,65.1346 L35.2645,54.5706 L29.8357,55.7729 L28.7546,50.8912 L25.972,51.5074 L25.972,51.5075 L24.8689,56.4696"/>
        </g>
        <g id="product-U2-Y08-O">
            <path style="stroke:none; fill:none;"  pointer-events="visible" d="M37.1096,54.162 L39.2008,63.6044 L40.6301,63.2879 L44.1659,56.7793 L46.2601,52.9242 L35.5466,47.1042 L37.1096,54.162"/>
        </g>
        <g id="product-U2-Y06-I">
            <path style="stroke:none; fill:none;"  pointer-events="visible" d="M35.5994,77.0631 L38.1037,78.4235 L40.5382,73.9421 L38.0339,72.5817 L36.1293,76.0877 L35.6472,76.9752 L35.5994,77.0631"/>
        </g>
        <g id="product-U2-X07-G">
            <path style="stroke:none; fill:none;"  pointer-events="visible" d="M27.4625,67.7186 L28.0463,70.3547 L31.2585,69.6434 L30.6747,67.0072 L27.4625,67.7186"/>
        </g>
        <g id="product-U2-X13-R">
            <path style="stroke:none; fill:none;"  pointer-events="visible" d="M33.2257,35.4081 L33.7447,37.7514 L34.8383,37.5092 L36.0654,35.2504 L35.4492,34.9157 L33.2257,35.4081"/>
        </g>
        <g id="product-U2-X07-H">
            <path style="stroke:none; fill:none;"  pointer-events="visible" d="M29.6295,72.4623 L29.1538,70.3143 L28.0896,70.55 L28.5653,72.698 L29.6295,72.4623"/>
        </g>
        <g id="product-U2-Y08-L">
            <path style="stroke:none; fill:none;"  pointer-events="visible" d="M40.7596,67.5643 L42.7367,68.6383 L43.8347,66.6171 L41.8576,65.5431 L40.7596,67.5643"/>
        </g>
        <g id="product-U2-Y08-I">
            <path style="stroke:none; fill:none;"  pointer-events="visible" d="M43.1748,63.118 L42.0198,65.2442 L44.6559,66.6765 L45.8111,64.5502 L43.1748,63.118"/>
        </g>
        <g id="product-U2-Y07-J">
            <path style="stroke:none; fill:none;"  pointer-events="visible" d="M39.3247,72.9073 L40.8276,73.7238 L42.145,71.2987 L39.3445,69.7773 L38.0271,72.2024 L39.3247,72.9073"/>
        </g>
        <g id="product-U2-X07-K">
            <path style="stroke:none; fill:none;"  pointer-events="visible" d="M31.604,69.5848 L37.0418,68.3805 L36.4157,65.5535 L30.9779,66.7578 L31.604,69.5848"/>
        </g>
        <g id="product-U2-X05-A">
            <path style="stroke:none; fill:none;"  pointer-events="visible" d="M23.4827,58.8714 L24.4743,63.349 L27.4793,70.629 L24.3434,56.4694 L25.0348,53.3593 L16.9463,55.1506 L17.2203,56.3881 L22.6659,55.1821 L23.4827,58.8714"/>
            <path style="stroke:none; fill:none;"  pointer-events="visible" d="M21.3568,75.0661 L22.3354,79.4849 L22.423,79.7427 L29.1669,78.2492 L27.837,72.2439 L21.3639,75.0846 L21.3568,75.0661"/>
        </g>
        <g id="product-U2-X11-A">
            <path style="stroke:none; fill:none;"  pointer-events="visible" d="M22.5789,13.5432 L6.42443,17.1208 L14.2517,52.4642 L16.2532,52.021 L16.9463,55.1506 L25.0348,53.3593 L25.3952,51.7381 L24.1237,45.9967 L24.1238,45.9967 L23.6654,43.9268 L28.7424,42.8025 L27.2801,36.1994 L30.6099,35.462 L33.1148,34.9073 L33.1717,35.1641 L35.4864,34.6514 L36.2945,35.0904 L42.2072,24.2063 L22.5789,13.5432"/>
        </g>
        <g id="product-U2-Y03-A">
            <path style="stroke:none; fill:none;"  pointer-events="visible" d="M29.1669,78.2492 L22.423,79.7427 L26.1691,90.7746 L40.4229,98.5178 L71.9999,40.3911 L42.3171,24.266 L39.8205,28.8617 L39.7656,28.9627 L39.6549,28.9026 L37.0342,33.7267 L37.1449,33.7869 L37.09,33.8879 L36.4044,35.1501 L35.0036,37.7286 L34.8419,37.7644 L33.7987,37.9955 L34.0645,39.1955 L35.0312,43.5606 L35.7058,46.6069 L46.5049,52.4734 L51.769,42.7727 L51.9888,42.8919 L46.7246,52.5927 L46.9558,52.7183 L44.6166,57.0242 L49.1024,59.4611 L46.2178,64.7711 L46.2179,64.7712 L41.2344,73.9448 L38.3498,79.2548 L34.9285,77.3962 L29.2563,78.6524 L29.1669,78.2492"/>
            <path style="stroke:none; fill:none;"  pointer-events="visible" d="M35.7571,39.771 L36.0224,39.2826 L41.0534,42.0157 L39.9669,44.0157 L36.2533,41.9983 L35.7571,39.771"/>
        </g>
        <g id="product-U2-X12-J">
            <path style="stroke:none; fill:none;"  pointer-events="visible" d="M24.2147,44.2661 L24.5758,45.8966 L27.6874,45.2075 L27.6831,45.1879 L27.6958,45.1851 L27.339,43.5742 L24.2147,44.2661"/>
        </g>
        <g id="product-U2-X12-R">
            <path style="stroke:none; fill:none;"  pointer-events="visible" d="M32.5333,43.8444 L34.4735,43.4147 L33.9277,40.9503 L31.9876,41.38 L32.5333,43.8444"/>
        </g>
        <g id="product-U2-X12-Q">
            <path style="stroke:none; fill:none;"  pointer-events="visible" d="M30.624,38.2888 L30.1375,36.0921 L27.8919,36.5894 L28.3784,38.7862 L30.624,38.2888"/>
        </g>
        <g id="product-U2-X12-O">
            <path style="stroke:none; fill:none;"  pointer-events="visible" d="M28.4216,38.9814 L28.9946,41.5687 L31.4354,41.0282 L31.4354,41.0281 L33.8276,40.4983 L32.7249,35.5191 L30.3327,36.0488 L30.8625,38.4409 L28.4216,38.9814"/>
        </g>
        <g id="product-U2-X06-G">
            <path style="stroke:none; fill:none;"  pointer-events="visible" d="M33.9169,75.6791 L37.6345,68.8358 L37.0733,68.531 L37.0747,68.5284 L31.6368,69.7327 L31.6435,69.763 L32.1905,72.2331 L28.6366,73.0202 L29.7438,78.019 L34.2158,77.0286 L33.9169,75.6791"/>
        </g>
        <g id="product-U2-Y07-I">
            <path style="stroke:none; fill:none;"  pointer-events="visible" d="M39.4223,69.6341 L42.2228,71.1554 L43.2334,69.295 L42.8826,69.1045 L40.433,67.7737 L39.4223,69.6341"/>
        </g>
        <g id="product-U2-X11-I">
            <path style="stroke:none; fill:none;"  pointer-events="visible" d="M25.8963,51.1657 L28.679,50.5494 L27.5763,45.5701 L24.7936,46.1863 L25.8963,51.1657"/>
        </g>
        <g id="product-U2-X12-T">
            <path style="stroke:none; fill:none;"  pointer-events="visible" d="M39.1503,41.1207 L38.1803,42.9063 L39.918,43.8503 L40.888,42.0646 L39.1503,41.1207"/>
            <path style="stroke:none; fill:none;"  pointer-events="visible" d="M39.788,42.5072 L40.1785,42.4207 L40.265,42.8112 L39.8745,42.8977 L39.788,42.5072"/>
        </g>
        <g id="product-U2-X12-R">
            <path style="stroke:none; fill:none;"  pointer-events="visible" d="M37.3929,40.166 L36.4229,41.9516 L38.0731,42.848 L39.0431,41.0624 L37.3929,40.166"/>
        </g>
        <g id="product-U2-X13-Q">
            <path style="stroke:none; fill:none;"  pointer-events="visible" d="M35.8861,39.789 L36.3435,41.8421 L37.2857,40.1077 L36.0713,39.448 L35.8861,39.789"/>
        </g>
    </g>
    <g id="storey-07L">
        <g id="product-07-Y06-I">
        </g>
        <g id="product-07-Y06-G">
        </g>
        <g id="product-07-Y06-H">
        </g>
        <g id="product-07-X07-G">
        </g>
        <g id="product-07-X07-J">
        </g>
        <g id="product-07-X07-H">
        </g>
        <g id="product-07-X09-C">
        </g>
        <g id="product-07-X06-A">
        </g>
        <g id="product-07-X05-I">
        </g>
        <g id="product-07-Y04-A">
        </g>
        <g id="product-07-Y00-A">
        </g>
        <g id="product-07-X06-Ha">
        </g>
        <g id="product-07-X06-Hc">
        </g>
        <g id="product-07-Y05-J">
        </g>
        <g id="product-07-Y05-K">
        </g>
        <g id="product-07-Y07-C">
        </g>
        <g id="product-07-X08-C">
        </g>
        <g id="product-07-X05-A">
        </g>
        <g id="product-07-Y05-H">
        </g>
        <g id="product-07-Y07-H">
        </g>
        <g id="product-07-Y07-I">
        </g>
        <g id="product-07-Y07-G">
        </g>
        <g id="product-07-X06-G">
        </g>
        <g id="product-07-X04-E">
        </g>
        <g id="product-07-X04-A">
        </g>
        <g id="product-07-Y08-J">
        </g>
        <g id="product-07-Y05-A">
        </g>
        <g id="product-07-Y08-C">
        </g>
        <g id="product-07-X07-K">
        </g>
        <g id="product-07-X07-A">
        </g>
        <g id="product-XX-XX">
        </g>
    </g>
    <g id="storey-05">
        <g id="product-05-Y09-H">
        </g>
        <g id="product-05-X11-C">
        </g>
        <g id="product-05-X11-H">
        </g>
        <g id="product-05-Y04-G">
        </g>
        <g id="product-05-Y10-I">
        </g>
        <g id="product-05-X10-I">
        </g>
        <g id="product-05-X03-C">
        </g>
        <g id="product-05-Y10-G">
        </g>
        <g id="product-05-Y10-H">
        </g>
        <g id="product-05-Y10-K">
        </g>
        <g id="product-05-Y05-H">
        </g>
        <g id="product-05-Y05-I">
        </g>
        <g id="product-05-Y10-L">
        </g>
        <g id="product-05-Y05-J">
        </g>
        <g id="product-05-X09-D">
        </g>
        <g id="product-05-X10-K">
        </g>
        <g id="product-05-X10-L">
        </g>
        <g id="product-05-X05-C">
        </g>
        <g id="product-05-X10-G">
        </g>
        <g id="product-05-X10-H">
        </g>
        <g id="product-05-X06-G">
        </g>
        <g id="product-05-X06-H">
        </g>
        <g id="product-05-X05-D">
        </g>
        <g id="product-05-Y07-C">
        </g>
        <g id="product-05-Y09-C">
        </g>
        <g id="product-05-Y09-D">
        </g>
        <g id="product-05-Y03-D">
        </g>
        <g id="product-05-Y03-C">
        </g>
        <g id="product-05-X07-H">
        </g>
        <g id="product-05-Y07-D">
        </g>
        <g id="product-05-X07-J">
        </g>
        <g id="product-05-Y08-H">
        </g>
        <g id="product-05-Y07-M">
        </g>
        <g id="product-05-X03-D">
        </g>
        <g id="product-05-Y06-H">
        </g>
        <g id="product-05-Y06-G">
        </g>
        <g id="product-05-Y09-G">
        </g>
        <g id="product-05-X11-D">
        </g>
        <g id="product-05-X07-G">
        </g>
        <g id="product-05-X11-G">
        </g>
        <g id="product-05-X09-C">
        </g>
        <g id="product-05-X11-I">
        </g>
        <g id="product-05-Y06-I">
        </g>
        <g id="product-05-X13-T">
        </g>
        <g id="product-05-X02-A">
        </g>
        <g id="product-05-Y07-G">
        </g>
        <g id="product-05-X08-G">
        </g>
        <g id="product-05-Y02-A">
        </g>
        <g id="product-05-Y05-G">
        </g>
        <g id="product-05-Y05-A">
        </g>
        <g id="product-05-X04-A">
        </g>
        <g id="product-05-Y00-A">
        </g>
        <g id="product-05-Y09-I">
        </g>
    </g>
    <g id="storey-02">
        <g id="product-02-X06-K">
        </g>
        <g id="product-02-X11-G">
        </g>
        <g id="product-02-X07-G">
        </g>
        <g id="product-02-X10-L">
        </g>
        <g id="product-02-X07-J">
        </g>
        <g id="product-02-X07-H">
        </g>
        <g id="product-02-X10-H">
        </g>
        <g id="product-02-X10-J">
        </g>
        <g id="product-02-Y08-C">
        </g>
        <g id="product-02-X05-D">
        </g>
        <g id="product-02-X10-A">
        </g>
        <g id="product-02-X12-K">
        </g>
        <g id="product-02-X11-I">
        </g>
        <g id="product-XX-XX">
        </g>
        <g id="product-02-Y06-K">
        </g>
        <g id="product-02-Y09-G">
        </g>
        <g id="product-02-X12-C">
        </g>
        <g id="product-02-X12-D">
        </g>
        <g id="product-02-X09-E">
        </g>
        <g id="product-02-X08-K">
        </g>
        <g id="product-02-X09-K">
        </g>
        <g id="product-02-X05-C">
        </g>
        <g id="product-02-X08-E">
        </g>
        <g id="product-02-X10-B">
        </g>
        <g id="product-02-X09-E">
        </g>
        <g id="product-02-Y08-L">
        </g>
        <g id="product-02-Y10-G">
        </g>
        <g id="product-02-X13-S">
        </g>
        <g id="product-02-X11-A">
        </g>
        <g id="product-02-X11-E">
        </g>
        <g id="product-02-Y09-I">
        </g>
        <g id="product-02-Y08-G">
        </g>
        <g id="product-02-Y04-G">
        </g>
        <g id="product-02-Y03-G">
        </g>
        <g id="product-02-X06-E">
        </g>
        <g id="product-02-X07-I">
        </g>
        <g id="product-02-X09-Ga">
        </g>
        <g id="product-02-X07-E">
        </g>
        <g id="product-02-Y07-M">
        </g>
        <g id="product-02-X03-C">
        </g>
        <g id="product-02-Y05-G">
        </g>
        <g id="product-02-X08-H">
        </g>
        <g id="product-02-X08-I">
        </g>
        <g id="product-02-X13-A">
        </g>
        <g id="product-02-X09-Gb">
        </g>
        <g id="product-02-X09-Gc">
        </g>
        <g id="product-02-X12-H">
        </g>
        <g id="product-02-X09-Ha">
        </g>
        <g id="product-02-Y09-M">
        </g>
        <g id="product-02-Y06-G">
        </g>
        <g id="product-02-X12-F">
        </g>
        <g id="product-02-Y08-K">
        </g>
        <g id="product-02-X08-G">
        </g>
        <g id="product-02-X12-E">
        </g>
        <g id="product-02-X11-F">
        </g>
        <g id="product-02-X10-F">
        </g>
        <g id="product-02-Y09-H">
        </g>
        <g id="product-02-X04-A">
        </g>
        <g id="product-02-Y02-C">
        </g>
    </g>
    <g id="storey-04">
        <g id="product-04-X11-H">
        </g>
        <g id="product-04-Y03-D">
        </g>
        <g id="product-04-Y09-H">
        </g>
        <g id="product-04-Y09-G">
        </g>
        <g id="product-04-Y06-G">
        </g>
        <g id="product-04-Y06-H">
        </g>
        <g id="product-04-X06-C">
        </g>
        <g id="product-04-X06-D">
        </g>
        <g id="product-04-Y08-C">
        </g>
        <g id="product-04-Y08-D">
        </g>
        <g id="product-04-Y11-G">
        </g>
        <g id="product-04-X13-J">
        </g>
        <g id="product-04-X09-C">
        </g>
        <g id="product-04-X09-D">
        </g>
        <g id="product-04-X03-D">
        </g>
        <g id="product-04-X13-I">
        </g>
        <g id="product-04-Y12-G">
        </g>
        <g id="product-04-X11-D">
        </g>
        <g id="product-04-X11-C">
        </g>
        <g id="product-04-X08-G">
        </g>
        <g id="product-04-X03-C">
        </g>
        <g id="product-04-Y03-C">
        </g>
        <g id="product-04-Y06-C">
        </g>
        <g id="product-04-Y06-D">
        </g>
        <g id="product-04-X13-G">
        </g>
        <g id="product-04-X13-H">
        </g>
        <g id="product-04-X07-H">
        </g>
        <g id="product-04-X07-J">
        </g>
        <g id="product-04-X07-G">
        </g>
        <g id="product-04-X11-G">
        </g>
        <g id="product-04-Y10-I">
        </g>
        <g id="product-04-X11-I">
        </g>
        <g id="product-04-Y10-G">
        </g>
        <g id="product-04-Y10-L">
        </g>
        <g id="product-04-Y09-I">
        </g>
        <g id="product-04-Y06-I">
        </g>
        <g id="product-04-Y10-K">
        </g>
        <g id="product-04-X13-T">
        </g>
        <g id="product-04-Y-10-H">
        </g>
        <g id="product-04-Y10-A">
        </g>
        <g id="product-04-X02-A">
        </g>
        <g id="product-04-X13-A">
        </g>
        <g id="product-04-Y05-G">
        </g>
        <g id="product-04-X12-G">
        </g>
        <g id="product-04-Y12-A">
        </g>
        <g id="product-04-X10-I">
        </g>
        <g id="product-04-X10-H">
        </g>
        <g id="product-04-X10-G">
        </g>
        <g id="product-04-10-K">
        </g>
        <g id="product-04-Y11-H">
        </g>
        <g id="product-04-X10-L">
        </g>
        <g id="product-04-Y13-G">
        </g>
        <g id="product-04-Y07-G">
        </g>
        <g id="product-04-Y13-A">
        </g>
        <g id="product-04-X09-H">
        </g>
        <g id="product-04-Y10-D">
        </g>
        <g id="product-04-Y10-C">
        </g>
        <g id="product-04-X09-G">
        </g>
        <g id="product-XX-XX">
        </g>
        <g id="product-04-X10-A">
        </g>
        <g id="product-04-X13-D">
        </g>
        <g id="product-04-Y13-C">
        </g>
        <g id="product-04-Y02-A">
        </g>
        <g id="product-04-Y00-A">
        </g>
        <g id="product-04-Y05-H">
        </g>
        <g id="product-04-Y05-I">
        </g>
        <g id="product-04-Y05-J">
        </g>
        <g id="product-04-X03-A">
        </g>
        <g id="product-04-Y13-D">
        </g>
        <g id="product-04-Y04-H">
        </g>
        <g id="product-04-X13-C">
        </g>
    </g>
    <g id="storey-06">
        <g id="product-06-Y10-G">
        </g>
        <g id="product-06-Y10-L">
        </g>
        <g id="product-06-X06-A">
        </g>
        <g id="product-06-Y10-K">
        </g>
        <g id="product-06-Y07-M">
        </g>
        <g id="product-06-X07-G">
        </g>
        <g id="product-06-X11-H">
        </g>
        <g id="product-06-X11-G">
        </g>
        <g id="product-06-Y03-C">
        </g>
        <g id="product-06-Y03-D">
        </g>
        <g id="product-06-Y08-C">
        </g>
        <g id="product-06-Y06-H">
        </g>
        <g id="product-06-Y06-G">
        </g>
        <g id="product-06-Y09-G">
        </g>
        <g id="product-06-Y09-H">
        </g>
        <g id="product-06-X09-G">
        </g>
        <g id="product-06-X06-G">
        </g>
        <g id="product-06-Y09-A">
        </g>
        <g id="product-06-X08-D">
        </g>
        <g id="product-06-X10-I">
        </g>
        <g id="product-06-X10-H">
        </g>
        <g id="product-06-X10-G">
        </g>
        <g id="product-06-X03-A">
        </g>
        <g id="product-06-X07-H">
        </g>
        <g id="product-06-X07-J">
        </g>
        <g id="product-06-Y10-I">
        </g>
        <g id="product-06-X11-I">
        </g>
        <g id="product-06-Y06-I">
        </g>
        <g id="product-06-Y00-A">
        </g>
        <g id="product-06-Y02-A">
        </g>
        <g id="product-06-Y09-I">
        </g>
        <g id="product-06-X06-H">
        </g>
        <g id="product-06-X07-G">
        </g>
        <g id="product-06-X03-C">
        </g>
        <g id="product-06-X08-G">
        </g>
        <g id="product-06-X03-D">
        </g>
        <g id="product-06-Y05-D">
        </g>
        <g id="product-06-Y05-D">
        </g>
        <g id="product-06-X08-C">
        </g>
        <g id="product-06-Y08-D">
        </g>
        <g id="product-06-Y05-H">
        </g>
        <g id="product-06-Y05-J">
        </g>
        <g id="product-06-Y05-G">
        </g>
        <g id="product-06-Y05-J">
        </g>
        <g id="product-06-X05-C">
        </g>
        <g id="product-06-X05-D">
        </g>
        <g id="product-06-Y04-G">
        </g>
        <g id="product-06-X10-K">
        </g>
        <g id="product-06-X10-L">
        </g>
        <g id="product-06-X02-A">
        </g>
        <g id="product-06-Y10-H">
        </g>
        <g id="product-06-Y08-H">
        </g>
    </g>
    <g id="storey-01">
        <g id="product-01-X14-J">
        </g>
        <g id="product-01-X08-O">
        </g>
        <g id="product-01-Y08-L">
        </g>
        <g id="product-01-Y08-M">
        </g>
        <g id="product-01-Y06-G">
        </g>
        <g id="product-01-X11-H">
        </g>
        <g id="product-01-Y09-C">
        </g>
        <g id="product-01-Y05-C">
        </g>
        <g id="product-01-X12-C">
        </g>
        <g id="product-01-X06-I">
        </g>
        <g id="product-01-Y08-N">
        </g>
        <g id="product-01-X11-F">
        </g>
        <g id="product-01-X06-G">
        </g>
        <g id="product-01-Y05-E">
        </g>
        <g id="product-01-X15-S">
        </g>
        <g id="product-01-X11-G">
        </g>
        <g id="product-01-X-15-T">
        </g>
        <g id="product-01-X05-I">
        </g>
        <g id="product-01-X15-G">
        </g>
        <g id="product-01-X12-A">
        </g>
        <g id="product-01-X7-K">
        </g>
        <g id="product-01-Y04-E">
        </g>
        <g id="product-01-X12-B">
        </g>
        <g id="product-01-X12-D">
        </g>
        <g id="product-01-Y6-M">
        </g>
        <g id="product-01-Y07-P">
        </g>
        <g id="product-01-X13-B">
        </g>
        <g id="product-01-X09-G">
        </g>
        <g id="product-01-X08-G">
        </g>
        <g id="product-01-Y06-I">
        </g>
        <g id="product-01-X08-P">
        </g>
        <g id="product-01-X13-A">
        </g>
        <g id="product-01-X10-A">
        </g>
        <g id="product-01-X12-P">
        </g>
        <g id="product-01-X08-Oc">
        </g>
        <g id="product-01-X14-H">
        </g>
        <g id="product-01-X14-F">
        </g>
        <g id="product-01-X13-Q">
        </g>
        <g id="product-01-X11-A">
        </g>
        <g id="product-01-X10-H">
        </g>
        <g id="product-01-X13-H">
        </g>
        <g id="product-01-X09-H">
        </g>
        <g id="product-01-X14-G">
        </g>
        <g id="product-01-X17-M">
        </g>
        <g id="product-01-Y08-G">
        </g>
        <g id="product-01-X07-H">
        </g>
        <g id="product-01-X07-G">
        </g>
        <g id="product-01-Y01-B">
        </g>
        <g id="product-01-X07-K">
        </g>
        <g id="product-01-X08-Oa">
        </g>
        <g id="product-01-X08-Pb">
        </g>
        <g id="product-01-X08-Pa">
        </g>
        <g id="product-01-X08-Ob">
        </g>
        <g id="product-??01-Y02-C">
        </g>
        <g id="product-??01-Y03-C">
        </g>
        <g id="product-01-Y06-H">
        </g>
        <g id="product-01-Y04-G">
        </g>
        <g id="product-01-Y07-O">
        </g>
        <g id="product-01-Y05-F">
        </g>
        <g id="product-01-X16-T">
        </g>
        <g id="product-01-X02-C">
        </g>
        <g id="product-01-X13-J">
        </g>
        <g id="product-01-X11-I">
        </g>
        <g id="product-01-Y09-G">
        </g>
        <g id="product-01-X04-I">
        </g>
        <g id="product-01-X12-Q">
        </g>
        <g id="product-01-X12-R">
        </g>
        <g id="product-01-X12-G">
        </g>
        <g id="product-01-Y04-F">
        </g>
    </g>
    <g id="storey-U3">
        <g id="product-U3-X10-M">
        </g>
        <g id="product-U3-Y03-A">
        </g>
        <g id="product-U3-X11-I">
        </g>
        <g id="product-U3-X12-J">
        </g>
        <g id="product-U3-X04-A">
        </g>
        <g id="product-U3-Y07-M">
        </g>
        <g id="product-U3-X07-A">
        </g>
        <g id="product-U3-Y09-I">
        </g>
        <g id="product-U3-Y6-I">
        </g>
        <g id="product-U3-Y08-I">
        </g>
        <g id="product-U3-Y08-L">
        </g>
        <g id="product-U3-Y07-J">
        </g>
        <g id="product-U3-X10-N">
        </g>
        <g id="product-U3-X07-H">
        </g>
        <g id="product-U3-X12-O">
        </g>
        <g id="product-U3-X12-R">
        </g>
        <g id="product-U3-X12Q">
        </g>
        <g id="product-U3-X13-P">
        </g>
        <g id="product-U3-X07-G">
        </g>
        <g id="product-U3-Y06-M">
        </g>
        <g id="product-U3-Y07-I">
        </g>
        <g id="product-U3-X07-K">
        </g>
        <g id="product-U3-X06-G">
        </g>
        <g id="product-U3-X08-G">
        </g>
    </g>
    <g id="storey-U1">
        <g id="product-U1-X08-M">
        </g>
        <g id="product-U1-X07-H">
        </g>
        <g id="product-U1-X13-R">
        </g>
        <g id="product-U1-X12-O">
        </g>
        <g id="product-U1-X07-G">
        </g>
        <g id="product-U1-X08-G">
        </g>
        <g id="product-U1-X08-I">
        </g>
        <g id="product-U1-Y07-J">
        </g>
        <g id="product-U1-Y03-A">
        </g>
        <g id="product-U1-X07-K">
        </g>
        <g id="product-U1-Y06-I">
        </g>
        <g id="product-U1-Y09-I">
        </g>
        <g id="product-U1-X12-N">
        </g>
        <g id="product-U1-X11-I">
        </g>
        <g id="product-U1-X12-J">
        </g>
        <g id="product-U1-X06-G">
        </g>
        <g id="product-U1-X15-S">
        </g>
        <g id="product-U1-X12-L">
        </g>
        <g id="product-U1-X08-Lb">
        </g>
        <g id="product-U1-X16-T">
        </g>
        <g id="product-U1-X09-O">
        </g>
        <g id="product-U1-X08-Ka">
        </g>
        <g id="product-U1-X08-La">
        </g>
        <g id="product-U1-Y07-O">
        </g>
        <g id="product-U1-X08-Kb">
        </g>
        <g id="product-U1-X08-Kc">
        </g>
        <g id="product-U1-X08-N">
        </g>
        <g id="product-U1-X11-O">
        </g>
        <g id="product-U1-X12-R">
        </g>
        <g id="product-U1-X12-Q">
        </g>
        <g id="product-U1-Y10-I">
        </g>
        <g id="product-U1-Y08-L">
        </g>
        <g id="product-U1-X12-T">
        </g>
        <g id="product-U1-Y07-I">
        </g>
        <g id="product-U1-Y11-O">
        </g>
        <g id="product-U1-X09-I">
        </g>
        <g id="product-U1-X12-M">
        </g>
        <g id="product-U1-Y06-M">
        </g>
        <g id="product-U1-Y08-I">
        </g>
        <g id="product-U1-Y07-P">
        </g>
        <g id="product-U1-Y08-N">
        </g>
        <g id="product-U1-X11-N">
        </g>
        <g id="product-U1-X05-A">
        </g>
    </g>
    <g id="storey-03">
        <g id="product-03-Y03-C">
        </g>
        <g id="product-03-Y12-G">
        </g>
        <g id="product-03-X14-H">
        </g>
        <g id="product-03-X09-D">
        </g>
        <g id="product-03-Y05-I">
        </g>
        <g id="product-03-Y06-G">
        </g>
        <g id="product-03-Y09-H">
        </g>
        <g id="product-03-X09-C">
        </g>
        <g id="product-03-Y06-H">
        </g>
        <g id="product-03-Y06-I">
        </g>
        <g id="product-03-X12-D">
        </g>
        <g id="product-03-X11-H">
        </g>
        <g id="product-03-Y04-H">
        </g>
        <g id="product-03-Y12-C">
        </g>
        <g id="product-03-Y09-G">
        </g>
        <g id="product-03-Y7-M">
        </g>
        <g id="product-03-Y10-K">
        </g>
        <g id="product-03-Y10-L">
        </g>
        <g id="product-03-Y05-H">
        </g>
        <g id="product-03-X12-C">
        </g>
        <g id="product-03-Y12-L">
        </g>
        <g id="product-03-Y10-G">
        </g>
        <g id="product-03-Y12-H">
        </g>
        <g id="product-03-X11-G">
        </g>
        <g id="product-03-Y07-D">
        </g>
        <g id="product-03-X13-T">
        </g>
        <g id="product-03-X10-I">
        </g>
        <g id="product-03-Y09-I">
        </g>
        <g id="product-03-X07-G">
        </g>
        <g id="product-03-X07-J">
        </g>
        <g id="product-03-X07-H">
        </g>
        <g id="product-03-X15-J">
        </g>
        <g id="product-03-X6-C">
        </g>
        <g id="product-03-Y07-C">
        </g>
        <g id="product-03-X14-G">
        </g>
        <g id="product-03-X6-D">
        </g>
        <g id="product-03-Y12-D">
        </g>
        <g id="product-03-Y07-G">
        </g>
        <g id="product-03-X04-D">
        </g>
        <g id="product-03-X13-G">
        </g>
        <g id="product-03-X15-H">
        </g>
        <g id="product-03-X04-C">
        </g>
        <g id="product-03-Y12-I">
        </g>
        <g id="product-03-Y08-H">
        </g>
        <g id="product-03-X14-G">
        </g>
        <g id="product-03-X14-I">
        </g>
        <g id="product-03-Y-10-H">
        </g>
        <g id="product-03-X11-I">
        </g>
        <g id="product-03-X10-L">
        </g>
        <g id="product-03-Y05-A">
        </g>
        <g id="product-03-Y05-C">
        </g>
        <g id="product-03-Y00-A">
        </g>
        <g id="product-03-Y10-I">
        </g>
        <g id="product-03-Y03-D">
        </g>
        <g id="product-03-X10-H">
        </g>
        <g id="product-03-10-K">
        </g>
        <g id="product-03-Y05-J">
        </g>
        <g id="product-03-X10-G">
        </g>
        <g id="product-03-Y11-G">
        </g>
        <g id="product-03-X06-A">
        </g>
        <g id="product-03-X08-G">
        </g>
    </g>
</g>
</g>
</svg>
