<svg xmlns="http://www.w3.org/2000/svg" xmlns:xlink="http://www.w3.org/1999/xlink" viewBox="0 -85 90 90"><defs><style>.cls-1,.cls-10,.cls-11,.cls-3,.cls-5{fill:none;}.cls-2{fill:#898d87;}.cls-10,.cls-11,.cls-2,.cls-3,.cls-4,.cls-5{stroke:#b4897d;}.cls-2,.cls-3{stroke-miterlimit:10;}.cls-10,.cls-2,.cls-3,.cls-4,.cls-5{stroke-width:0.08px;}.cls-4{fill:#fff;}.cls-4,.cls-5{stroke-linecap:square;}.cls-6{clip-path:url(#clip-path);}.cls-7{fill:#b4897d;}.cls-8{clip-path:url(#clip-path-2);}.cls-9{clip-path:url(#clip-path-3);}.cls-11{stroke-width:0.16px;}</style><clipPath id="clip-path"><rect class="cls-1" x="24.8992" y="45.8555" width="3.6351" height="3.9096" transform="translate(-10.0139 7.1843) rotate(-12.9204)"/></clipPath><clipPath id="clip-path-2"><rect class="cls-1" x="36.3013" y="73.1344" width="3.9196" height="3.6694" transform="matrix(0.4715, -0.8819, 0.8819, 0.4715, -45.8917, 73.361)"/></clipPath><clipPath id="clip-path-3"><rect class="cls-1" x="44.0154" y="58.8937" width="3.9196" height="3.6694" transform="translate(-29.2566 72.6377) rotate(-61.8673)"/></clipPath></defs>
<g id='wrapper' transform='rotate(28), scale(1, -1)'>
<title>6</title><g id="Stairs_Outline" data-name="Stairs Outline"><path class="cls-2" d="M35.7328,44.4735a1.7275,1.7275,0,0,1-.4357.5349l-4.1347,3.38a3.4862,3.4862,0,0,0-.6864.7015c-.16.2881.0349,1.0483.0349,1.0483l4.2724,19.17.47.27.8875-1.5206,1.4938.6109-.9482,1.7251.2526.14,4.52-8.3265a1.8076,1.8076,0,0,0-.977-.1035c-.3879.1251-.9591.634-1.011.56l-.8029-1.53,5.1429-3.287,4.8742-8.9Z"/><path class="cls-3" d="M35.7328,44.4735a1.7275,1.7275,0,0,1-.4357.5349l-4.1347,3.38a3.4862,3.4862,0,0,0-.6864.7015c-.16.2881.0349,1.0483.0349,1.0483l4.2724,19.17.47.27.8875-1.5206,1.4938.6109-.9482,1.7251.2526.14,4.52-8.3265a1.8076,1.8076,0,0,0-.977-.1035c-.3879.1251-.9591.634-1.011.56l-.8029-1.53,5.1429-3.287,4.8742-8.9Z"/></g><g id="Stairs"><path class="cls-4" d="M43.9176,57.6843l-8.933,5.7465a2.3816,2.3816,0,0,0-.8017.6893,1.5064,1.5064,0,0,0-.1775.8751l.9693,4.4437L36.7913,70.46l-.7667-4.5312a1.424,1.424,0,0,1,.0612-.5963,1.5291,1.5291,0,0,1,.5268-.6307l3.4316-2.3629a1.6907,1.6907,0,0,1,.8325-.2458,1.2909,1.2909,0,0,1,.5723.1381Z"/><line class="cls-5" x1="35.3834" y1="63.226" x2="36.3641" y2="64.8268"/><line class="cls-5" x1="35.8749" y1="62.9171" x2="36.8556" y2="64.5179"/><line class="cls-5" x1="36.3664" y1="62.6082" x2="37.3241" y2="64.1714"/><line class="cls-5" x1="36.8579" y1="62.2993" x2="37.8386" y2="63.9001"/><line class="cls-5" x1="37.3494" y1="61.9904" x2="38.3301" y2="63.5912"/><line class="cls-5" x1="37.8043" y1="61.6217" x2="38.7871" y2="63.226"/><line class="cls-5" x1="38.2957" y1="61.3127" x2="39.2502" y2="62.8707"/><line class="cls-5" x1="38.7871" y1="61.0036" x2="39.7318" y2="62.5455"/><line class="cls-5" x1="39.2744" y1="60.6908" x2="40.2095" y2="62.2141"/><line class="cls-5" x1="39.7731" y1="60.3788" x2="40.8147" y2="62.079"/><line class="cls-5" x1="40.2612" y1="60.0762" x2="41.4821" y2="62.069"/><line class="cls-5" x1="40.732" y1="59.7335" x2="41.8036" y2="61.4826"/><line class="cls-5" x1="41.2224" y1="59.4228" x2="42.1282" y2="60.9012"/><line class="cls-5" x1="41.7107" y1="59.1087" x2="42.4518" y2="60.3183"/><line class="cls-5" x1="42.197" y1="58.7912" x2="42.7906" y2="59.7602"/><line class="cls-5" x1="42.6853" y1="58.477" x2="43.0934" y2="59.1432"/><line class="cls-5" x1="34.3525" y1="66.5767" x2="36.068" y2="66.3034"/><line class="cls-5" x1="34.2655" y1="65.9859" x2="35.981" y2="65.7126"/><line class="cls-5" x1="34.0116" y1="64.8268" x2="36.0858" y2="65.3327"/><line class="cls-5" x1="34.4754" y1="63.7849" x2="36.2361" y2="65.0494"/><line class="cls-5" x1="34.4754" y1="67.0988" x2="36.1464" y2="66.8325"/><line class="cls-5" x1="34.5983" y1="67.6209" x2="36.2466" y2="67.3583"/><line class="cls-5" x1="34.7212" y1="68.143" x2="36.3641" y2="67.8812"/><line class="cls-5" x1="34.8441" y1="68.665" x2="36.4379" y2="68.4111"/><line class="cls-5" x1="34.967" y1="69.1871" x2="36.506" y2="68.942"/><line class="cls-5" x1="35.3346" y1="69.6703" x2="36.6043" y2="69.468"/><path class="cls-4" d="M32.24,57.828,38.8988,63.06s.65.5311.7442.88a1.0139,1.0139,0,0,1-.06.8935c-.1835.4061-2.87,5.5845-2.87,5.5845L35.3346,69.67l2.3-4.0495a3.064,3.064,0,0,0,.2294-.8021.862.862,0,0,0-.4018-.6644c-.2253-.1786-2.2832-1.8707-2.8717-2.2891a1.6377,1.6377,0,0,0-.9459-.3521,1.2917,1.2917,0,0,0-.5724.1381Z"/><line class="cls-5" x1="38.5918" y1="62.8188" x2="37.573" y2="64.209"/><line class="cls-5" x1="38.1055" y1="62.4367" x2="37.0822" y2="63.8458"/><line class="cls-5" x1="37.6479" y1="62.079" x2="36.6599" y2="63.4394"/><line class="cls-5" x1="37.1599" y1="61.7631" x2="36.1904" y2="63.0981"/><line class="cls-5" x1="36.7188" y1="61.3827" x2="35.7267" y2="62.7488"/><line class="cls-5" x1="36.257" y1="61.0306" x2="35.2944" y2="62.3562"/><line class="cls-5" x1="35.8104" y1="60.6578" x2="34.8136" y2="62.0304"/><line class="cls-5" x1="35.3446" y1="60.3114" x2="34.3429" y2="61.6907"/><line class="cls-5" x1="34.9093" y1="59.9255" x2="33.7764" y2="61.4826"/><line class="cls-5" x1="34.44" y1="59.5708" x2="33.0516" y2="61.4826"/><line class="cls-5" x1="33.9891" y1="59.2143" x2="32.8769" y2="60.7458"/><line class="cls-5" x1="33.5296" y1="58.8592" x2="32.7258" y2="59.9659"/><line class="cls-5" x1="33.0516" y1="58.5296" x2="32.5423" y2="59.2307"/><line class="cls-5" x1="38.9223" y1="66.1243" x2="37.6748" y2="65.5624"/><line class="cls-5" x1="39.3574" y1="65.2078" x2="37.8435" y2="64.9783"/><line class="cls-5" x1="39.6973" y1="64.2773" x2="37.8537" y2="64.5307"/><line class="cls-5" x1="39.3384" y1="63.5139" x2="37.717" y2="64.356"/><line class="cls-5" x1="38.659" y1="66.5767" x2="37.4958" y2="65.9496"/><line class="cls-5" x1="38.4054" y1="67.066" x2="37.2078" y2="66.4204"/><line class="cls-5" x1="38.1469" y1="67.6205" x2="36.8871" y2="66.9413"/><line class="cls-5" x1="37.8435" y1="68.132" x2="36.6043" y2="67.464"/><line class="cls-5" x1="37.573" y1="68.6161" x2="36.3178" y2="67.9394"/><line class="cls-5" x1="37.3363" y1="69.1239" x2="36.068" y2="68.4444"/><line class="cls-5" x1="37.0712" y1="69.5691" x2="35.8104" y2="68.8776"/><line class="cls-5" x1="36.8485" y1="70.0115" x2="35.5446" y2="69.3005"/><g class="cls-6"><path class="cls-7" d="M24.6485,46.402l3.313-.7527.0147.0646-3.3129.7528Zm3.4319-.2548-3.2963.7489.0146.0647,3.2964-.749ZM26.887,49.654l-.557-2.4627.4681-.1059.5527,2.443,1.3862-.3121-.0146-.0647-1.2778.29-.0978-.4327,1.2583-.2859-.0148-.0646-1.2581.2858-.0983-.4343,1.3036-.2962-.0147-.0647-1.3035.2962-.0983-.4346,1.27-.2886-.0148-.0647-1.27.2886-.0984-.4346L28.3,47.22l-.0147-.0647-1.292.292-.099-.4371,1.3035-.2954-.0147-.0647-3.2919.7483.0147.0647,1.3045-.298.0977.4314-1.2807.291.0148.0648,1.2805-.2911.0983.4345-1.28.2909.0148.0647,1.28-.2909.0983.4345-1.2621.2869.0147.0646,1.2621-.2867.0983.4344-1.2793.2906.0147.0647,1.2792-.2906.1028.4546-1.2957.2944.0147.0647Z"/></g><g class="cls-8"><path class="cls-7" d="M37.6145,72.5371,40.6354,74.16l-.0314.0586-3.021-1.6233Zm2.7831,2.078L37.3918,73l-.0316.0586,3.0059,1.6152Zm-3.3211,1.8057,0,.0006.0982.053,1.2-2.2287.4266.23-.1882.3494L38.61,74.823l-.0314.0586.0032.0017-.9711,1.803.0472.0256-.0012.0023,1.2161.6536.0316-.0586-1.1652-.6261.211-.3916,1.1474.6166.0314-.0586-1.1472-.6165.2116-.3931,1.1887.6387.0315-.0585-1.1887-.6387.212-.3933,1.1578.6221.0315-.0586L38.4683,75.33l.2118-.3934,1.1147.5989.0314-.0586-1.1146-.5988.2131-.3957,1.188.6393.0316-.0585-2.9359-1.58-.0315.0586,1.1245.6051-.21.3905L36.9233,73.91l-.0315.0587,1.1677.6273-.2117.3933L36.68,74.3614l-.0314.0586,1.1674.6273-.2119.3932-1.1509-.6184-.0315.0586,1.1509.6185-.2118.393-1.1665-.6268-.0315.0586,1.1665.6268-.2216.4114-1.1816-.6349-.0314.0586Z"/></g><g class="cls-9"><path class="cls-7" d="M45.3285,58.2964,48.35,59.92l-.0314.0586-3.021-1.6233Zm2.7831,2.078-3.0058-1.6152-.0315.0586L48.08,60.433ZM44.7906,62.18l0,.0006.0982.0529,1.2-2.2286.4266.23-.1881.3494-.0033-.0018-.0315.0586.0032.0017-.9711,1.803.0473.0256-.0013.0023,1.2162.6536.0316-.0586-1.1652-.6261.211-.3916,1.1473.6166.0315-.0586-1.1473-.6165.2116-.3931,1.1888.6387.0314-.0585-1.1886-.6387.2119-.3933,1.1579.6221.0315-.0586-1.158-.6221.2118-.3934,1.1147.5989.0315-.0586-1.1146-.5988.213-.3957,1.1881.6393.0315-.0585-2.9359-1.58-.0315.0586,1.1245.6051-.21.3905-1.1678-.6275-.0316.0587,1.1678.6273-.2117.3933-1.1675-.6274-.0315.0586,1.1674.6273-.2118.3932-1.151-.6184-.0314.0586,1.1508.6185-.2117.393-1.1665-.6268-.0315.0586,1.1664.6268-.2215.4114-1.1816-.6349-.0315.0586Z"/></g></g><g id="NEW_Inner" data-name="NEW Inner"><polyline class="cls-10" points="28.433 82.442 28.745 83.872 26.198 84.437 25.03 79.164 27.577 78.6 27.899 80.019"/><line class="cls-10" x1="28.0823" y1="80.8757" x2="28.2576" y2="81.639"/><line class="cls-10" x1="25.609" y1="81.7785" x2="28.1937" y2="81.2289"/><polyline class="cls-10" points="30.222 90.541 29.913 89.144 27.364 89.71 28.533 94.982 31.081 94.416 30.772 92.987"/><line class="cls-10" x1="30.5795" y1="92.1516" x2="30.4133" y2="91.3739"/><line class="cls-10" x1="27.9525" y1="92.346" x2="30.5049" y2="91.7855"/><polyline class="cls-10" points="34.742 93.549 34.055 94.831 36.428 96.12 39.006 91.374 36.634 90.086 35.939 91.365"/><line class="cls-10" x1="35.1391" y1="92.8027" x2="35.5155" y2="92.1158"/><line class="cls-10" x1="37.7088" y1="93.7431" x2="35.3009" y2="92.4338"/><polyline class="cls-10" points="41.088 81.885 41.789 80.595 44.161 81.884 41.584 86.629 39.211 85.34 39.905 84.042"/><line class="cls-10" x1="40.2943" y1="83.3126" x2="40.6877" y2="82.6237"/><line class="cls-10" x1="42.8642" y1="84.253" x2="40.4638" y2="82.9478"/><polyline class="cls-10" points="38.085 80.671 39.265 81.311 37.786 84.034 34.385 82.171 35.814 79.43 36.209 79.652"/><line class="cls-10" x1="36.9493" y1="80.0359" x2="37.3375" y2="80.264"/><path class="cls-10" d="M35.6352,82.8648c-.0077-.0295,1.4924-2.7149,1.4924-2.7149"/><line class="cls-10" x1="35.2107" y1="80.5444" x2="35.7837" y2="80.855"/><line class="cls-10" x1="36.3545" y1="81.1571" x2="36.5033" y2="81.2402"/><polyline class="cls-10" points="40.743 78.594 42.804 74.797 37.883 72.123 35.134 77.186 35.583 77.429"/><polyline class="cls-10" points="36.364 77.854 40.055 79.859 40.283 79.439"/><line class="cls-10" x1="40.8264" y1="73.7177" x2="38.0864" y2="78.7897"/><line class="cls-10" x1="41.4639" y1="77.2659" x2="39.4906" y2="76.1946"/><polyline class="cls-10" points="47.653 69.801 46.943 71.106 49.317 72.394 51.894 67.648 49.521 66.36 48.862 67.575"/><line class="cls-10" x1="48.0454" y1="69.0791" x2="48.4354" y2="68.3611"/><line class="cls-10" x1="50.6061" y1="70.0228" x2="48.23" y2="68.7306"/><polyline class="cls-10" points="41.101 66.412 42.061 64.645 46.804 67.222 45.184 70.148 40.464 67.585 40.645 67.252"/><polyline class="cls-10" points="49.915 61.709 50.538 60.563 45.617 57.889 42.867 62.951 43.315 63.194"/><polyline class="cls-10" points="44.097 63.619 47.788 65.623 49.479 62.513"/><line class="cls-10" x1="48.5349" y1="59.4884" x2="45.8113" y2="64.5662"/><line class="cls-10" x1="49.108" y1="63.1397" x2="47.142" y2="62.0852"/><path class="cls-10" d="M48.647,57.6058s-2.24-1.191-2.2267-1.195,1.4628-2.6958,1.4628-2.6958l4.9226,2.673-1.4646,2.6959-1.8056-.982"/><polyline class="cls-10" points="33.139 76.98 33.221 77.35 29.521 78.169 28.392 73.074 32.092 72.254 32.142 72.475"/><line class="cls-10" x1="32.3405" y1="73.3728" x2="32.9329" y2="76.0478"/><line class="cls-10" x1="28.9314" y1="75.5089" x2="32.6175" y2="74.7182"/><polyline class="cls-10" points="31.144 67.508 30.945 66.608 27.049 67.471 28.295 73.094 28.413 73.068"/><polyline class="cls-10" points="32.092 72.254 32.189 72.232 32.005 71.393"/><line class="cls-10" x1="31.6846" y1="69.9485" x2="31.464" y2="68.9526"/><line class="cls-10" x1="27.7251" y1="70.5266" x2="31.622" y2="69.665"/><polyline class="cls-10" points="26.087 53.185 23.988 53.65 24.651 56.644 30.118 55.432 29.455 52.438 27.028 52.985"/><polyline class="cls-10" points="28.594 50.906 29.091 50.795 27.846 45.171 22.379 46.383 23.205 50.113"/><polyline class="cls-10" points="23.413 51.052 23.625 52.007 27.667 51.112"/><path class="cls-10" d="M22.975,49.0741c.065.0411,2.208-.4324,2.208-.4324L24.56,45.8962"/><path class="cls-10" d="M25.8453,51.515c.0018-.0209-.6623-2.8733-.6623-2.8733"/><polyline class="cls-10" points="24.336 64.116 24.075 62.783 21.526 63.347 22.694 68.62 25.242 68.056 24.942 66.626"/><line class="cls-10" x1="24.5731" y1="65.0301" x2="24.7275" y2="65.8089"/><path class="cls-10" d="M22.1063,65.9853c.0388-.0079,2.5435-.5685,2.5435-.5685"/><polyline class="cls-10" points="31.587 62.524 32.012 64.446 26.74 65.614 24.766 56.606"/><polyline class="cls-10" points="31.38 61.591 31.29 61.186 26.034 62.353"/><line class="cls-10" x1="31.2903" y1="61.1859" x2="30.3985" y2="57.246"/><line class="cls-10" x1="30.2128" y1="56.3193" x2="29.9941" y2="55.448"/></g><g id="NEW_Outer" data-name="NEW Outer"><polygon class="cls-11" points="32.6 109.549 28.431 108.962 15.706 51.503 14.2 36.509 61.352 52.693 56.558 65.447 32.6 109.549"/><polygon class="cls-10" points="60.582 53.054 14.796 37.271 16.262 51.338 28.867 108.515 32.344 109.021 55.978 65.235 60.582 53.054"/></g><g id="Anchor"><line class="cls-1" x2="7.5"/></g>

<g class="rooms">
<g id="storey-U2">
        <g id="product-U2-Y06-M">
        </g>
        <g id="product-U2-Y09-I">
        </g>
        <g id="product-U2-X10-M">
        </g>
        <g id="product-U2-Y07-M">
        </g>
        <g id="product-U2-X08-M">
        </g>
        <g id="product-U2-X12-S">
        </g>
        <g id="product-U2-X08-G">
        </g>
        <g id="product-U2-Y08-O">
        </g>
        <g id="product-U2-Y06-I">
        </g>
        <g id="product-U2-X07-G">
        </g>
        <g id="product-U2-X13-R">
        </g>
        <g id="product-U2-X07-H">
        </g>
        <g id="product-U2-Y08-L">
        </g>
        <g id="product-U2-Y08-I">
        </g>
        <g id="product-U2-Y07-J">
        </g>
        <g id="product-U2-X07-K">
        </g>
        <g id="product-U2-X05-A">
        </g>
        <g id="product-U2-X11-A">
        </g>
        <g id="product-U2-Y03-A">
        </g>
        <g id="product-U2-X12-J">
        </g>
        <g id="product-U2-X12-R">
        </g>
        <g id="product-U2-X12-Q">
        </g>
        <g id="product-U2-X12-O">
        </g>
        <g id="product-U2-X06-G">
        </g>
        <g id="product-U2-Y07-I">
        </g>
        <g id="product-U2-X11-I">
        </g>
        <g id="product-U2-X12-T">
        </g>
        <g id="product-U2-X12-R">
        </g>
        <g id="product-U2-X13-Q">
        </g>
    </g>
    <g id="storey-U3">
        <g id="product-U3-X10-M">
        </g>
        <g id="product-U3-Y03-A">
        </g>
        <g id="product-U3-X11-I">
        </g>
        <g id="product-U3-X12-J">
        </g>
        <g id="product-U3-X04-A">
        </g>
        <g id="product-U3-Y07-M">
        </g>
        <g id="product-U3-X07-A">
        </g>
        <g id="product-U3-Y09-I">
        </g>
        <g id="product-U3-Y6-I">
        </g>
        <g id="product-U3-Y08-I">
        </g>
        <g id="product-U3-Y08-L">
        </g>
        <g id="product-U3-Y07-J">
        </g>
        <g id="product-U3-X10-N">
        </g>
        <g id="product-U3-X07-H">
        </g>
        <g id="product-U3-X12-O">
        </g>
        <g id="product-U3-X12-R">
        </g>
        <g id="product-U3-X12Q">
        </g>
        <g id="product-U3-X13-P">
        </g>
        <g id="product-U3-X07-G">
        </g>
        <g id="product-U3-Y06-M">
        </g>
        <g id="product-U3-Y07-I">
        </g>
        <g id="product-U3-X07-K">
        </g>
        <g id="product-U3-X06-G">
        </g>
        <g id="product-U3-X08-G">
        </g>
    </g>
    <g id="storey-03">
        <g id="product-03-Y03-C">
        </g>
        <g id="product-03-Y12-G">
        </g>
        <g id="product-03-X14-H">
        </g>
        <g id="product-03-X09-D">
        </g>
        <g id="product-03-Y05-I">
        </g>
        <g id="product-03-Y06-G">
        </g>
        <g id="product-03-Y09-H">
        </g>
        <g id="product-03-X09-C">
        </g>
        <g id="product-03-Y06-H">
        </g>
        <g id="product-03-Y06-I">
        </g>
        <g id="product-03-X12-D">
        </g>
        <g id="product-03-X11-H">
        </g>
        <g id="product-03-Y04-H">
        </g>
        <g id="product-03-Y12-C">
        </g>
        <g id="product-03-Y09-G">
        </g>
        <g id="product-03-Y7-M">
        </g>
        <g id="product-03-Y10-K">
        </g>
        <g id="product-03-Y10-L">
        </g>
        <g id="product-03-Y05-H">
        </g>
        <g id="product-03-X12-C">
        </g>
        <g id="product-03-Y12-L">
        </g>
        <g id="product-03-Y10-G">
        </g>
        <g id="product-03-Y12-H">
        </g>
        <g id="product-03-X11-G">
        </g>
        <g id="product-03-Y07-D">
        </g>
        <g id="product-03-X13-T">
        </g>
        <g id="product-03-X10-I">
        </g>
        <g id="product-03-Y09-I">
        </g>
        <g id="product-03-X07-G">
        </g>
        <g id="product-03-X07-J">
        </g>
        <g id="product-03-X07-H">
        </g>
        <g id="product-03-X15-J">
        </g>
        <g id="product-03-X6-C">
        </g>
        <g id="product-03-Y07-C">
        </g>
        <g id="product-03-X14-G">
        </g>
        <g id="product-03-X6-D">
        </g>
        <g id="product-03-Y12-D">
        </g>
        <g id="product-03-Y07-G">
        </g>
        <g id="product-03-X04-D">
        </g>
        <g id="product-03-X13-G">
        </g>
        <g id="product-03-X15-H">
        </g>
        <g id="product-03-X04-C">
        </g>
        <g id="product-03-Y12-I">
        </g>
        <g id="product-03-Y08-H">
        </g>
        <g id="product-03-X14-G">
        </g>
        <g id="product-03-X14-I">
        </g>
        <g id="product-03-Y-10-H">
        </g>
        <g id="product-03-X11-I">
        </g>
        <g id="product-03-X10-L">
        </g>
        <g id="product-03-Y05-A">
        </g>
        <g id="product-03-Y05-C">
        </g>
        <g id="product-03-Y00-A">
        </g>
        <g id="product-03-Y10-I">
        </g>
        <g id="product-03-Y03-D">
        </g>
        <g id="product-03-X10-H">
        </g>
        <g id="product-03-10-K">
        </g>
        <g id="product-03-Y05-J">
        </g>
        <g id="product-03-X10-G">
        </g>
        <g id="product-03-Y11-G">
        </g>
        <g id="product-03-X06-A">
        </g>
        <g id="product-03-X08-G">
        </g>
    </g>
    <g id="storey-04">
        <g id="product-04-X11-H">
        </g>
        <g id="product-04-Y03-D">
        </g>
        <g id="product-04-Y09-H">
        </g>
        <g id="product-04-Y09-G">
        </g>
        <g id="product-04-Y06-G">
        </g>
        <g id="product-04-Y06-H">
        </g>
        <g id="product-04-X06-C">
        </g>
        <g id="product-04-X06-D">
        </g>
        <g id="product-04-Y08-C">
        </g>
        <g id="product-04-Y08-D">
        </g>
        <g id="product-04-Y11-G">
        </g>
        <g id="product-04-X13-J">
        </g>
        <g id="product-04-X09-C">
        </g>
        <g id="product-04-X09-D">
        </g>
        <g id="product-04-X03-D">
        </g>
        <g id="product-04-X13-I">
        </g>
        <g id="product-04-Y12-G">
        </g>
        <g id="product-04-X11-D">
        </g>
        <g id="product-04-X11-C">
        </g>
        <g id="product-04-X08-G">
        </g>
        <g id="product-04-X03-C">
        </g>
        <g id="product-04-Y03-C">
        </g>
        <g id="product-04-Y06-C">
        </g>
        <g id="product-04-Y06-D">
        </g>
        <g id="product-04-X13-G">
        </g>
        <g id="product-04-X13-H">
        </g>
        <g id="product-04-X07-H">
        </g>
        <g id="product-04-X07-J">
        </g>
        <g id="product-04-X07-G">
        </g>
        <g id="product-04-X11-G">
        </g>
        <g id="product-04-Y10-I">
        </g>
        <g id="product-04-X11-I">
        </g>
        <g id="product-04-Y10-G">
        </g>
        <g id="product-04-Y10-L">
        </g>
        <g id="product-04-Y09-I">
        </g>
        <g id="product-04-Y06-I">
        </g>
        <g id="product-04-Y10-K">
        </g>
        <g id="product-04-X13-T">
        </g>
        <g id="product-04-Y-10-H">
        </g>
        <g id="product-04-Y10-A">
        </g>
        <g id="product-04-X02-A">
        </g>
        <g id="product-04-X13-A">
        </g>
        <g id="product-04-Y05-G">
        </g>
        <g id="product-04-X12-G">
        </g>
        <g id="product-04-Y12-A">
        </g>
        <g id="product-04-X10-I">
        </g>
        <g id="product-04-X10-H">
        </g>
        <g id="product-04-X10-G">
        </g>
        <g id="product-04-10-K">
        </g>
        <g id="product-04-Y11-H">
        </g>
        <g id="product-04-X10-L">
        </g>
        <g id="product-04-Y13-G">
        </g>
        <g id="product-04-Y07-G">
        </g>
        <g id="product-04-Y13-A">
        </g>
        <g id="product-04-X09-H">
        </g>
        <g id="product-04-Y10-D">
        </g>
        <g id="product-04-Y10-C">
        </g>
        <g id="product-04-X09-G">
        </g>
        <g id="product-XX-XX">
        </g>
        <g id="product-04-X10-A">
        </g>
        <g id="product-04-X13-D">
        </g>
        <g id="product-04-Y13-C">
        </g>
        <g id="product-04-Y02-A">
        </g>
        <g id="product-04-Y00-A">
        </g>
        <g id="product-04-Y05-H">
        </g>
        <g id="product-04-Y05-I">
        </g>
        <g id="product-04-Y05-J">
        </g>
        <g id="product-04-X03-A">
        </g>
        <g id="product-04-Y13-D">
        </g>
        <g id="product-04-Y04-H">
        </g>
        <g id="product-04-X13-C">
        </g>
    </g>
    <g id="storey-U1">
        <g id="product-U1-X08-M">
        </g>
        <g id="product-U1-X07-H">
        </g>
        <g id="product-U1-X13-R">
        </g>
        <g id="product-U1-X12-O">
        </g>
        <g id="product-U1-X07-G">
        </g>
        <g id="product-U1-X08-G">
        </g>
        <g id="product-U1-X08-I">
        </g>
        <g id="product-U1-Y07-J">
        </g>
        <g id="product-U1-Y03-A">
        </g>
        <g id="product-U1-X07-K">
        </g>
        <g id="product-U1-Y06-I">
        </g>
        <g id="product-U1-Y09-I">
        </g>
        <g id="product-U1-X12-N">
        </g>
        <g id="product-U1-X11-I">
        </g>
        <g id="product-U1-X12-J">
        </g>
        <g id="product-U1-X06-G">
        </g>
        <g id="product-U1-X15-S">
        </g>
        <g id="product-U1-X12-L">
        </g>
        <g id="product-U1-X08-Lb">
        </g>
        <g id="product-U1-X16-T">
        </g>
        <g id="product-U1-X09-O">
        </g>
        <g id="product-U1-X08-Ka">
        </g>
        <g id="product-U1-X08-La">
        </g>
        <g id="product-U1-Y07-O">
        </g>
        <g id="product-U1-X08-Kb">
        </g>
        <g id="product-U1-X08-Kc">
        </g>
        <g id="product-U1-X08-N">
        </g>
        <g id="product-U1-X11-O">
        </g>
        <g id="product-U1-X12-R">
        </g>
        <g id="product-U1-X12-Q">
        </g>
        <g id="product-U1-Y10-I">
        </g>
        <g id="product-U1-Y08-L">
        </g>
        <g id="product-U1-X12-T">
        </g>
        <g id="product-U1-Y07-I">
        </g>
        <g id="product-U1-Y11-O">
        </g>
        <g id="product-U1-X09-I">
        </g>
        <g id="product-U1-X12-M">
        </g>
        <g id="product-U1-Y06-M">
        </g>
        <g id="product-U1-Y08-I">
        </g>
        <g id="product-U1-Y07-P">
        </g>
        <g id="product-U1-Y08-N">
        </g>
        <g id="product-U1-X11-N">
        </g>
        <g id="product-U1-X05-A">
        </g>
    </g>
    <g id="storey-02">
        <g id="product-02-X06-K">
        </g>
        <g id="product-02-X11-G">
        </g>
        <g id="product-02-X07-G">
        </g>
        <g id="product-02-X10-L">
        </g>
        <g id="product-02-X07-J">
        </g>
        <g id="product-02-X07-H">
        </g>
        <g id="product-02-X10-H">
        </g>
        <g id="product-02-X10-J">
        </g>
        <g id="product-02-Y08-C">
        </g>
        <g id="product-02-X05-D">
        </g>
        <g id="product-02-X10-A">
        </g>
        <g id="product-02-X12-K">
        </g>
        <g id="product-02-X11-I">
        </g>
        <g id="product-XX-XX">
        </g>
        <g id="product-02-Y06-K">
        </g>
        <g id="product-02-Y09-G">
        </g>
        <g id="product-02-X12-C">
        </g>
        <g id="product-02-X12-D">
        </g>
        <g id="product-02-X09-E">
        </g>
        <g id="product-02-X08-K">
        </g>
        <g id="product-02-X09-K">
        </g>
        <g id="product-02-X05-C">
        </g>
        <g id="product-02-X08-E">
        </g>
        <g id="product-02-X10-B">
        </g>
        <g id="product-02-X09-E">
        </g>
        <g id="product-02-Y08-L">
        </g>
        <g id="product-02-Y10-G">
        </g>
        <g id="product-02-X13-S">
        </g>
        <g id="product-02-X11-A">
        </g>
        <g id="product-02-X11-E">
        </g>
        <g id="product-02-Y09-I">
        </g>
        <g id="product-02-Y08-G">
        </g>
        <g id="product-02-Y04-G">
        </g>
        <g id="product-02-Y03-G">
        </g>
        <g id="product-02-X06-E">
        </g>
        <g id="product-02-X07-I">
        </g>
        <g id="product-02-X09-Ga">
        </g>
        <g id="product-02-X07-E">
        </g>
        <g id="product-02-Y07-M">
        </g>
        <g id="product-02-X03-C">
        </g>
        <g id="product-02-Y05-G">
        </g>
        <g id="product-02-X08-H">
        </g>
        <g id="product-02-X08-I">
        </g>
        <g id="product-02-X13-A">
        </g>
        <g id="product-02-X09-Gb">
        </g>
        <g id="product-02-X09-Gc">
        </g>
        <g id="product-02-X12-H">
        </g>
        <g id="product-02-X09-Ha">
        </g>
        <g id="product-02-Y09-M">
        </g>
        <g id="product-02-Y06-G">
        </g>
        <g id="product-02-X12-F">
        </g>
        <g id="product-02-Y08-K">
        </g>
        <g id="product-02-X08-G">
        </g>
        <g id="product-02-X12-E">
        </g>
        <g id="product-02-X11-F">
        </g>
        <g id="product-02-X10-F">
        </g>
        <g id="product-02-Y09-H">
        </g>
        <g id="product-02-X04-A">
        </g>
        <g id="product-02-Y02-C">
        </g>
    </g>
    <g id="storey-01">
        <g id="product-01-X14-J">
        </g>
        <g id="product-01-X08-O">
        </g>
        <g id="product-01-Y08-L">
        </g>
        <g id="product-01-Y08-M">
        </g>
        <g id="product-01-Y06-G">
        </g>
        <g id="product-01-X11-H">
        </g>
        <g id="product-01-Y09-C">
        </g>
        <g id="product-01-Y05-C">
        </g>
        <g id="product-01-X12-C">
        </g>
        <g id="product-01-X06-I">
        </g>
        <g id="product-01-Y08-N">
        </g>
        <g id="product-01-X11-F">
        </g>
        <g id="product-01-X06-G">
        </g>
        <g id="product-01-Y05-E">
        </g>
        <g id="product-01-X15-S">
        </g>
        <g id="product-01-X11-G">
        </g>
        <g id="product-01-X-15-T">
        </g>
        <g id="product-01-X05-I">
        </g>
        <g id="product-01-X15-G">
        </g>
        <g id="product-01-X12-A">
        </g>
        <g id="product-01-X7-K">
        </g>
        <g id="product-01-Y04-E">
        </g>
        <g id="product-01-X12-B">
        </g>
        <g id="product-01-X12-D">
        </g>
        <g id="product-01-Y6-M">
        </g>
        <g id="product-01-Y07-P">
        </g>
        <g id="product-01-X13-B">
        </g>
        <g id="product-01-X09-G">
        </g>
        <g id="product-01-X08-G">
        </g>
        <g id="product-01-Y06-I">
        </g>
        <g id="product-01-X08-P">
        </g>
        <g id="product-01-X13-A">
        </g>
        <g id="product-01-X10-A">
        </g>
        <g id="product-01-X12-P">
        </g>
        <g id="product-01-X08-Oc">
        </g>
        <g id="product-01-X14-H">
        </g>
        <g id="product-01-X14-F">
        </g>
        <g id="product-01-X13-Q">
        </g>
        <g id="product-01-X11-A">
        </g>
        <g id="product-01-X10-H">
        </g>
        <g id="product-01-X13-H">
        </g>
        <g id="product-01-X09-H">
        </g>
        <g id="product-01-X14-G">
        </g>
        <g id="product-01-X17-M">
        </g>
        <g id="product-01-Y08-G">
        </g>
        <g id="product-01-X07-H">
        </g>
        <g id="product-01-X07-G">
        </g>
        <g id="product-01-Y01-B">
        </g>
        <g id="product-01-X07-K">
        </g>
        <g id="product-01-X08-Oa">
        </g>
        <g id="product-01-X08-Pb">
        </g>
        <g id="product-01-X08-Pa">
        </g>
        <g id="product-01-X08-Ob">
        </g>
        <g id="product-??01-Y02-C">
        </g>
        <g id="product-??01-Y03-C">
        </g>
        <g id="product-01-Y06-H">
        </g>
        <g id="product-01-Y04-G">
        </g>
        <g id="product-01-Y07-O">
        </g>
        <g id="product-01-Y05-F">
        </g>
        <g id="product-01-X16-T">
        </g>
        <g id="product-01-X02-C">
        </g>
        <g id="product-01-X13-J">
        </g>
        <g id="product-01-X11-I">
        </g>
        <g id="product-01-Y09-G">
        </g>
        <g id="product-01-X04-I">
        </g>
        <g id="product-01-X12-Q">
        </g>
        <g id="product-01-X12-R">
        </g>
        <g id="product-01-X12-G">
        </g>
        <g id="product-01-Y04-F">
        </g>
    </g>
    <g id="storey-05">
        <g id="product-05-Y09-H">
        </g>
        <g id="product-05-X11-C">
        </g>
        <g id="product-05-X11-H">
        </g>
        <g id="product-05-Y04-G">
        </g>
        <g id="product-05-Y10-I">
        </g>
        <g id="product-05-X10-I">
        </g>
        <g id="product-05-X03-C">
        </g>
        <g id="product-05-Y10-G">
        </g>
        <g id="product-05-Y10-H">
        </g>
        <g id="product-05-Y10-K">
        </g>
        <g id="product-05-Y05-H">
        </g>
        <g id="product-05-Y05-I">
        </g>
        <g id="product-05-Y10-L">
        </g>
        <g id="product-05-Y05-J">
        </g>
        <g id="product-05-X09-D">
        </g>
        <g id="product-05-X10-K">
        </g>
        <g id="product-05-X10-L">
        </g>
        <g id="product-05-X05-C">
        </g>
        <g id="product-05-X10-G">
        </g>
        <g id="product-05-X10-H">
        </g>
        <g id="product-05-X06-G">
        </g>
        <g id="product-05-X06-H">
        </g>
        <g id="product-05-X05-D">
        </g>
        <g id="product-05-Y07-C">
        </g>
        <g id="product-05-Y09-C">
        </g>
        <g id="product-05-Y09-D">
        </g>
        <g id="product-05-Y03-D">
        </g>
        <g id="product-05-Y03-C">
        </g>
        <g id="product-05-X07-H">
        </g>
        <g id="product-05-Y07-D">
        </g>
        <g id="product-05-X07-J">
        </g>
        <g id="product-05-Y08-H">
        </g>
        <g id="product-05-Y07-M">
        </g>
        <g id="product-05-X03-D">
        </g>
        <g id="product-05-Y06-H">
        </g>
        <g id="product-05-Y06-G">
        </g>
        <g id="product-05-Y09-G">
        </g>
        <g id="product-05-X11-D">
        </g>
        <g id="product-05-X07-G">
        </g>
        <g id="product-05-X11-G">
        </g>
        <g id="product-05-X09-C">
        </g>
        <g id="product-05-X11-I">
        </g>
        <g id="product-05-Y06-I">
        </g>
        <g id="product-05-X13-T">
        </g>
        <g id="product-05-X02-A">
        </g>
        <g id="product-05-Y07-G">
        </g>
        <g id="product-05-X08-G">
        </g>
        <g id="product-05-Y02-A">
        </g>
        <g id="product-05-Y05-G">
        </g>
        <g id="product-05-Y05-A">
        </g>
        <g id="product-05-X04-A">
        </g>
        <g id="product-05-Y00-A">
        </g>
        <g id="product-05-Y09-I">
        </g>
    </g>
    <g id="storey-06">
        <g id="product-06-Y10-G">
            <path style="stroke:none; fill:none;"  pointer-events="visible" d="M52.2407,56.2109 L51.0017,55.5378 L50.3697,56.7012 L51.6087,57.3743 L52.2407,56.2109"/>
        </g>
        <g id="product-06-Y10-L">
            <path style="stroke:none; fill:none;"  pointer-events="visible" d="M48.7276,55.9617 L47.4798,55.2838 L46.903,56.3455 L48.1508,57.0233 L48.7276,55.9617"/>
        </g>
        <g id="product-06-X06-A">
            <path style="stroke:none; fill:none;"  pointer-events="visible" d="M25.232,68.0157 L22.689,68.5791 L21.5398,63.3896 L24.0828,62.8264 L25.232,68.0157"/>
            <path style="stroke:none; fill:none;"  pointer-events="visible" d="M32.4057,66.2859 L32.0182,64.5363 L26.7596,65.7009 L24.7464,56.6101 L24.6487,56.6318 L24.5524,56.1968 L24.5827,56.1901 L24.1308,54.1495 L24.1005,54.1562 L22.3931,46.4465 L15.8606,47.8932 L16.2788,52.1297 L20.0593,69.2045 L27.0884,67.6478 L27.0495,67.4721 L32.4057,66.2859"/>
        </g>
        <g id="product-06-Y10-K">
            <path style="stroke:none; fill:none;"  pointer-events="visible" d="M49.4235,54.6805 L48.1758,54.0027 L47.5437,55.1661 L48.7915,55.8439 L49.4235,54.6805"/>
        </g>
        <g id="product-06-Y07-M">
            <path style="stroke:none; fill:none;"  pointer-events="visible" d="M48.1429,53.1157 L50.6865,48.5576 L34.1906,43.757 L27.8466,45.1722 L30.234,49.2217 L30.2701,49.2846 L30.3334,49.4152 L30.3874,49.5499 L30.4319,49.688 L30.4708,49.8554 L34.8191,69.4898 L36.9322,70.6355 L44.6766,56.3804 L44.7105,56.3174 L44.7871,56.1965 L44.8718,56.0811 L44.9644,55.972 L45.0644,55.8696 L45.1144,55.8251 L48.1429,53.1157"/>
        </g>
        <g id="product-06-X07-G">
            <path style="stroke:none; fill:none;"  pointer-events="visible" d="M27.4625,67.7186 L28.0463,70.3547 L31.2585,69.6434 L30.6747,67.0072 L27.4625,67.7186"/>
        </g>
        <g id="product-06-X11-H">
            <path style="stroke:none; fill:none;"  pointer-events="visible" d="M25.6035,51.2305 L25.055,48.7535 L23.3463,49.1319 L23.8949,51.6089 L25.6035,51.2305"/>
        </g>
        <g id="product-06-X11-G">
            <path style="stroke:none; fill:none;"  pointer-events="visible" d="M23.3111,48.9728 L25.0197,48.5944 L24.5008,46.2512 L22.7921,46.6296 L23.3111,48.9728"/>
        </g>
        <g id="product-06-Y03-C">
            <path style="stroke:none; fill:none;"  pointer-events="visible" d="M37.6001,93.6413 L38.815,91.405 L36.6581,90.2333 L35.4432,92.4696 L37.6001,93.6413"/>
        </g>
        <g id="product-06-Y03-D">
            <path style="stroke:none; fill:none;"  pointer-events="visible" d="M35.4074,92.5355 L34.1925,94.7719 L35.6366,95.5563 L35.6487,95.5629 L36.3495,95.9436 L37.5643,93.7072 L35.4074,92.5355"/>
        </g>
        <g id="product-06-Y08-C">
            <path style="stroke:none; fill:none;"  pointer-events="visible" d="M50.4887,69.9161 L51.7035,67.6798 L49.5466,66.5081 L48.3317,68.7444 L50.4887,69.9161"/>
        </g>
        <g id="product-06-Y06-H">
            <path style="stroke:none; fill:none;"  pointer-events="visible" d="M39.9051,79.4021 L41.1159,77.1732 L39.5782,76.3379 L38.3674,78.5668 L39.9051,79.4021"/>
        </g>
        <g id="product-06-Y06-G">
            <path style="stroke:none; fill:none;"  pointer-events="visible" d="M42.3396,74.9207 L40.8019,74.0853 L39.656,76.1946 L41.1937,77.03 L42.3396,74.9207"/>
        </g>
        <g id="product-06-Y09-G">
            <path style="stroke:none; fill:none;"  pointer-events="visible" d="M48.8616,62.915 L50.0726,60.6857 L48.5349,59.8504 L47.3239,62.0797 L48.8616,62.915"/>
        </g>
        <g id="product-06-Y09-H">
            <path style="stroke:none; fill:none;"  pointer-events="visible" d="M46.1003,64.3317 L47.6381,65.1672 L48.7838,63.0583 L47.2459,62.2228 L46.1003,64.3317"/>
        </g>
        <g id="product-06-X09-G">
            <path style="stroke:none; fill:none;"  pointer-events="visible" d="M24.8196,56.5939 L26.0726,62.2518 L26.3899,62.1815 L30.8811,61.1869 L30.8591,61.0873 L31.2223,61.0069 L30.3919,57.2578 L30.346,57.2679 L30.132,56.3013 L30.1779,56.2912 L30.1368,56.1056 L29.7736,56.1861 L29.6914,55.8151 L30.0547,55.7346 L29.9913,55.4486 L29.8175,55.4871 L25.1994,56.5098 L24.8196,56.5939"/>
        </g>
        <g id="product-06-X06-G">
            <path style="stroke:none; fill:none;"  pointer-events="visible" d="M32.3423,73.5105 L32.0656,72.2608 L28.5078,73.0487 L29.0362,75.4349 L32.594,74.647 L32.5564,74.4771 L32.5105,74.4873 L32.2964,73.5207 L32.3423,73.5105"/>
        </g>
        <g id="product-06-Y09-A">
            <path style="stroke:none; fill:none;"  pointer-events="visible" d="M58.4894,58.7824 L58.4957,58.7707 L53.1029,55.841 L53.0965,55.8528 L53.0964,55.8528 L52.7989,56.4004 L52.7717,56.3856 L51.3487,59.005 L51.376,59.0198 L47.8742,65.4659 L54.2009,68.9028 L56.3666,64.9162 L58.4894,58.7824"/>
        </g>
        <g id="product-06-X08-D">
            <path style="stroke:none; fill:none;"  pointer-events="visible" d="M24.5923,65.4739 L22.1957,66.0046 L22.746,68.4894 L25.1426,67.9586 L24.5923,65.4739"/>
        </g>
        <g id="product-06-X10-I">
            <path style="stroke:none; fill:none;"  pointer-events="visible" d="M27.6217,53.0225 L26.083,53.3633 L26.6722,56.0239 L28.2109,55.6831 L27.6217,53.0225"/>
        </g>
        <g id="product-06-X10-H">
            <path style="stroke:none; fill:none;"  pointer-events="visible" d="M25.1823,56.3538 L26.5706,56.0463 L26.2965,54.8083 L24.9081,55.1158 L25.1823,56.3538"/>
        </g>
        <g id="product-06-X10-G">
            <path style="stroke:none; fill:none;"  pointer-events="visible" d="M24.8791,54.985 L26.2675,54.6775 L25.9814,53.3858 L24.5931,53.6933 L24.8791,54.985"/>
        </g>
        <g id="product-06-X03-A">
            <path style="stroke:none; fill:none;"  pointer-events="visible" d="M38.755,97.3355 L54.2009,68.9028 L47.8742,65.4659 L47.7882,65.6242 L42.8674,62.951 L42.0158,64.5184 L42.1038,64.5662 L46.8489,67.144 L45.2993,69.9962 L45.3872,70.044 L32.7648,93.2792 L27.0884,67.6477 L20.0589,69.2054 L25.8876,95.5244 L28.527,94.9399 L27.3777,89.7506 L29.9208,89.1875 L31.0792,94.4185 L32.6531,94.0695 L32.979,94.2464 L34.0705,94.8393 L36.628,90.1316 L38.9167,91.3749 L36.3796,96.0453 L37.6629,96.7423 L38.755,97.3355"/>
            <path style="stroke:none; fill:none;"  pointer-events="visible" d="M25.0425,79.2059 L27.5855,78.6427 L28.7347,83.832 L26.1917,84.3952 L25.0425,79.2059"/>
            <path style="stroke:none; fill:none;"  pointer-events="visible" d="M41.7834,80.6415 L44.0721,81.8848 L41.535,86.5552 L39.2462,85.3119 L41.7834,80.6415"/>
            <path style="stroke:none; fill:none;"  pointer-events="visible" d="M46.9794,71.0767 L49.5165,66.4064 L51.8052,67.6497 L49.2681,72.3201 L46.9794,71.0767"/>
        </g>
        <g id="product-06-X07-H">
            <path style="stroke:none; fill:none;"  pointer-events="visible" d="M28.0896,70.55 L28.5653,72.698 L29.5319,72.4839 L29.6295,72.4623 L29.1538,70.3143 L29.0562,70.3359 L28.0896,70.55"/>
        </g>
        <g id="product-06-X07-J">
            <path style="stroke:none; fill:none;"  pointer-events="visible" d="M29.8248,72.419 L31.7775,71.9866 L31.3018,69.8386 L29.3491,70.2711 L29.8248,72.419"/>
        </g>
        <g id="product-06-Y10-I">
            <path style="stroke:none; fill:none;"  pointer-events="visible" d="M49.5828,57.9319 L50.9103,55.4882 L49.5149,54.7301 L48.2007,57.1494 L48.1874,57.1738 L49.5828,57.9319"/>
        </g>
        <g id="product-06-X11-I">
            <path style="stroke:none; fill:none;"  pointer-events="visible" d="M25.8964,51.1657 L28.679,50.5494 L27.5763,45.5701 L24.7937,46.1863 L25.8964,51.1657"/>
        </g>
        <g id="product-06-Y06-I">
            <path style="stroke:none; fill:none;"  pointer-events="visible" d="M35.5994,77.0631 L38.1037,78.4235 L40.5382,73.9421 L38.0339,72.5817 L35.5994,77.0631"/>
        </g>
        <g id="product-06-Y00-A">
            <path style="stroke:none; fill:none;"  pointer-events="visible" d="M32.3682,109.092 L36.1566,102.119 L27.0645,100.839 L28.7805,108.587 L32.3682,109.092"/>
        </g>
        <g id="product-06-Y02-A">
            <path style="stroke:none; fill:none;"  pointer-events="visible" d="M38.7549,97.3357 L34.0908,94.8019 L34.0705,94.8393 L32.6538,94.0697 L32.6535,94.0698 L31.6106,101.479 L36.1566,102.119 L38.7549,97.3357"/>
        </g>
        <g id="product-06-Y09-I">
            <path style="stroke:none; fill:none;"  pointer-events="visible" d="M43.3323,62.8281 L45.8367,64.1885 L48.2712,59.7071 L45.7669,58.3466 L43.3323,62.8281"/>
        </g>
        <g id="product-06-X06-H">
            <path style="stroke:none; fill:none;"  pointer-events="visible" d="M32.6645,74.9652 L32.6269,74.7954 L29.0691,75.5833 L29.6174,78.0593 L33.1752,77.2714 L32.8785,75.9318 L32.8327,75.942 L32.6186,74.9754 L32.6645,74.9652"/>
        </g>
        <g id="product-06-X07-G">
            <path style="stroke:none; fill:none;"  pointer-events="visible" d="M42.8046,74.7979 L45.2603,70.2777 L40.7787,67.8431 L40.7242,67.9433 L40.2847,67.7046 L37.8835,72.1244 L42.8046,74.7979"/>
        </g>
        <g id="product-06-X03-C">
            <path style="stroke:none; fill:none;"  pointer-events="visible" d="M28.0175,92.2924 L30.414,91.7617 L29.8638,89.2769 L27.4672,89.8076 L28.0175,92.2924"/>
        </g>
        <g id="product-06-X08-G">
            <path style="stroke:none; fill:none;"  pointer-events="visible" d="M30.9192,61.3588 L26.1107,62.4237 L26.7948,65.5128 L31.9665,64.3675 L31.5596,62.53 L31.5136,62.5402 L31.5087,62.5177 L31.3045,61.596 L31.2996,61.5736 L31.3455,61.5634 L31.3045,61.3779 L30.9412,61.4583 L30.9192,61.3588"/>
        </g>
        <g id="product-06-X03-D">
            <path style="stroke:none; fill:none;"  pointer-events="visible" d="M30.9805,94.3197 L30.4303,91.8349 L28.0337,92.3657 L28.584,94.8505 L30.9805,94.3197"/>
        </g>
        <g id="product-06-Y05-D">
            <path style="stroke:none; fill:none;"  pointer-events="visible" d="M41.8135,80.7432 L40.5986,82.9796 L42.7555,84.1513 L43.9704,81.9149 L41.8135,80.7432"/>
        </g>
        <g id="product-06-Y05-D">
            <path style="stroke:none; fill:none;"  pointer-events="visible" d="M41.5049,86.4535 L42.7197,84.2172 L40.5628,83.0455 L39.348,85.2818 L41.5049,86.4535"/>
        </g>
        <g id="product-06-X08-C">
            <path style="stroke:none; fill:none;"  pointer-events="visible" d="M21.6294,63.4476 L22.1795,65.9314 L24.5761,65.4006 L24.026,62.9169 L21.6294,63.4476"/>
        </g>
        <g id="product-06-Y08-D">
            <path style="stroke:none; fill:none;"  pointer-events="visible" d="M49.238,72.2184 L50.4529,69.982 L48.2959,68.8103 L47.0811,71.0466 L49.238,72.2184"/>
        </g>
        <g id="product-06-Y05-H">
            <path style="stroke:none; fill:none;"  pointer-events="visible" d="M37.1555,80.2801 L35.9125,82.5682 L37.887,83.6409 L39.13,81.3527 L37.1555,80.2801"/>
        </g>
        <g id="product-06-Y05-J">
            <path style="stroke:none; fill:none;"  pointer-events="visible" d="M36.0726,79.6918 L35.5398,80.6724 L36.5314,81.2111 L37.0641,80.2304 L36.0726,79.6918"/>
        </g>
        <g id="product-06-Y05-G">
            <path style="stroke:none; fill:none;"  pointer-events="visible" d="M27.0639,52.9689 L27.0736,52.9667 L27.0866,53.0253 L29.4103,52.5107 L29.3973,52.4521 L29.4559,52.4391 L29.4689,52.4977 L29.4103,52.5107 L30.0571,55.4314 L30.1157,55.4184 L30.1191,55.4336 L30.0214,55.4552 L30.082,55.7286 L30.1796,55.707 L30.2618,56.078 L30.1642,56.0996 L31.2496,61.0008 L31.3472,60.9792 L31.4294,61.3502 L31.3318,61.3718 L32.4194,66.2828 L30.9451,66.6094 L32.1905,72.2331 L32.0929,72.2547 L33.3923,78.1219 L39.2656,81.3126 L40.0551,79.8592 L35.1343,77.186 L37.8839,72.1246 L37.8837,72.1245 L40.412,67.4709 L40.4999,67.5186 L42.1035,64.5661 L42.0158,64.5184 L42.8674,62.951 L45.6169,57.8897 L50.5377,60.5628 L51.3411,59.0839 L49.4519,58.0576 L49.4867,57.9935 L48.5992,57.5114 L48.5644,57.5755 L46.421,56.4093 L47.8844,53.7158 L47.6727,53.6008 L45.0368,55.9611 L45.0008,55.9976 L44.9089,56.1054 L44.8248,56.2194 L44.749,56.3391 L44.7154,56.4014 L36.9758,70.659 L34.7614,69.4584 L30.4103,49.8114 L30.385,49.705 L30.3417,49.5691 L30.2888,49.4366 L30.2267,49.3082 L30.1911,49.2464 L27.8466,45.1722 L29.0921,50.7959 L23.6245,52.0068 L23.9884,53.65 L26.0875,53.1851 L26.1033,53.2564 L27.0894,53.038 L27.0866,53.0253 L27.0768,53.0275 L27.0639,52.9689"/>
        </g>
        <g id="product-06-Y05-J">
            <path style="stroke:none; fill:none;"  pointer-events="visible" d="M36.4818,81.3025 L35.3412,80.6829 L34.6805,81.899 L35.8211,82.5186 L36.4818,81.3025"/>
        </g>
        <g id="product-06-X05-C">
            <path style="stroke:none; fill:none;"  pointer-events="visible" d="M25.6822,81.7477 L28.0788,81.217 L27.5285,78.7322 L25.1319,79.2629 L25.6822,81.7477"/>
        </g>
        <g id="product-06-X05-D">
            <path style="stroke:none; fill:none;"  pointer-events="visible" d="M28.6453,83.775 L28.095,81.2902 L25.6984,81.8209 L26.2487,84.3057 L28.6453,83.775"/>
        </g>
        <g id="product-06-Y04-G">
            <path style="stroke:none; fill:none;"  pointer-events="visible" d="M29.4401,78.2668 L32.7647,93.2791 L37.7876,84.033 L34.382,82.183 L35.8599,79.4625 L33.3923,78.1219 L33.2381,77.4257 L29.4401,78.2668"/>
        </g>
        <g id="product-06-X10-K">
            <path style="stroke:none; fill:none;"  pointer-events="visible" d="M28.0125,54.3064 L29.3989,53.9994 L29.1344,52.8051 L27.748,53.1122 L28.0125,54.3064"/>
        </g>
        <g id="product-06-X10-L">
            <path style="stroke:none; fill:none;"  pointer-events="visible" d="M28.3124,55.6606 L29.6988,55.3536 L29.4214,54.1009 L28.035,54.4079 L28.3124,55.6606"/>
        </g>
        <g id="product-06-X02-A">
            <path style="stroke:none; fill:none;"  pointer-events="visible" d="M25.8876,95.5247 L27.0645,100.839 L31.6106,101.479 L32.6535,94.0698 L31.0792,94.4184 L31.07,94.3769 L28.527,94.9401 L25.8876,95.5247"/>
        </g>
        <g id="product-06-Y10-H">
            <path style="stroke:none; fill:none;"  pointer-events="visible" d="M51.5447,57.4921 L50.3057,56.819 L49.6742,57.9815 L50.9132,58.6546 L51.5447,57.4921"/>
        </g>
        <g id="product-06-Y08-H">
            <path style="stroke:none; fill:none;"  pointer-events="visible" d="M40.6698,67.2651 L40.5791,67.432 L40.9056,67.6094 L40.8512,67.7095 L44.8934,69.9054 L44.9478,69.8053 L45.1957,69.9399 L46.6611,67.2423 L42.0446,64.7343 L41.1424,66.3951 L41.1837,66.4175 L40.7111,67.2875 L40.6698,67.2651"/>
        </g>
    </g>
    <g id="storey-07L">
        <g id="product-07-Y06-I">
        </g>
        <g id="product-07-Y06-G">
        </g>
        <g id="product-07-Y06-H">
        </g>
        <g id="product-07-X07-G">
        </g>
        <g id="product-07-X07-J">
        </g>
        <g id="product-07-X07-H">
        </g>
        <g id="product-07-X09-C">
        </g>
        <g id="product-07-X06-A">
        </g>
        <g id="product-07-X05-I">
        </g>
        <g id="product-07-Y04-A">
        </g>
        <g id="product-07-Y00-A">
        </g>
        <g id="product-07-X06-Ha">
        </g>
        <g id="product-07-X06-Hc">
        </g>
        <g id="product-07-Y05-J">
        </g>
        <g id="product-07-Y05-K">
        </g>
        <g id="product-07-Y07-C">
        </g>
        <g id="product-07-X08-C">
        </g>
        <g id="product-07-X05-A">
        </g>
        <g id="product-07-Y05-H">
        </g>
        <g id="product-07-Y07-H">
        </g>
        <g id="product-07-Y07-I">
        </g>
        <g id="product-07-Y07-G">
        </g>
        <g id="product-07-X06-G">
        </g>
        <g id="product-07-X04-E">
        </g>
        <g id="product-07-X04-A">
        </g>
        <g id="product-07-Y08-J">
        </g>
        <g id="product-07-Y05-A">
        </g>
        <g id="product-07-Y08-C">
        </g>
        <g id="product-07-X07-K">
        </g>
        <g id="product-07-X07-A">
        </g>
        <g id="product-XX-XX">
        </g>
    </g>
</g>
</g>
</svg>