<svg xmlns="http://www.w3.org/2000/svg" xmlns:xlink="http://www.w3.org/1999/xlink" version="1.1" id="Layer_4" x="0px" y="0px" viewBox="-533 340 140.4 120.4" xml:space="preserve">
<style> 

</style>
<circle class="st0" cx="-458.8" cy="386.2" r="7.3" style="stroke:green; fill:green"/>
<path class="st0" style="stroke:green; fill:green" d="M-454.1,445.7c-2.2,3.3-7.2,3.3-9.4,0c-0.1-0.2-0.2-0.4-0.3-0.5c-6.7-10.1-25.4-39.5-27.2-55.8  c-1.2-11.3,1.2-20.4,7.3-27.2c6.6-7.4,17.3-10.7,24.9-10.7c7.6,0,18.3,3.3,24.9,10.7c6.1,6.7,8.5,15.9,7.3,27.2  c-1.8,16.5-20.8,46.3-27.4,56.1C-454,445.5-454.1,445.6-454.1,445.7z M-458.8,358.6c-5.9,0-14.5,2.6-19.7,8.3  c-4.7,5.2-6.5,12.5-5.6,21.8c0.8,7.1,5.7,18.7,14.4,33.8c4.1,7.2,8.2,13.6,10.9,17.7c9.5-14.3,23.9-38.9,25.2-51.4  c1-9.2-0.9-16.6-5.6-21.8C-444.3,361.2-452.9,358.6-458.8,358.6z"/>
</svg>